<svg width="48" height="48" viewBox="0 0 48 48" fill="none" xmlns="http://www.w3.org/2000/svg">
<g clip-path="url(#clip0_19_7801)">
<mask id="mask0_19_7801" style="mask-type:luminance" maskUnits="userSpaceOnUse" x="0" y="0" width="48" height="48">
<path d="M47.8857 0.229996H0.325745V47.79H47.8857V0.229996Z" fill="white"/>
</mask>
<g mask="url(#mask0_19_7801)">
<path fill-rule="evenodd" clip-rule="evenodd" d="M21.737 6.03797C20.2211 6.27913 18.5498 6.88208 17.4176 7.59632C14.8874 9.19243 13.1257 11.5895 12.3883 14.4394C12.1789 15.2488 11.9713 17.1277 12.0643 17.3705C12.1244 17.527 12.3861 17.5331 16.9613 17.485C19.6199 17.4571 21.8136 17.4156 21.8365 17.3928C21.8594 17.3699 21.723 16.7698 21.5335 16.0593C21.3439 15.3487 21.1868 14.5842 21.1843 14.3603C21.1782 13.8243 21.4484 13.6106 22.2209 13.5406L22.7796 13.4899L22.372 12.2244C22.1479 11.5284 21.862 10.5852 21.7367 10.1285C21.5168 9.32742 21.5139 9.27838 21.6531 8.73513C22.1286 6.88144 24.6322 6.62856 25.5148 8.3451C25.8081 8.91556 25.7155 9.65262 25.099 11.6543C24.8082 12.5987 24.5702 13.4033 24.5702 13.4424C24.5702 13.4814 24.8033 13.5133 25.0882 13.5133C25.537 13.5133 25.6426 13.5497 25.8778 13.7849C26.2448 14.152 26.2298 14.5343 25.7857 16.1143C25.5919 16.804 25.4646 17.4035 25.5027 17.4466C25.5409 17.4896 27.7768 17.4941 30.4714 17.4563L35.3709 17.3877L35.3114 16.6349C35.0724 13.6083 33.8752 10.8392 31.9761 8.92036C30.6624 7.59314 29.1648 6.74182 27.264 6.2418C26.2798 5.98289 26.0533 5.95856 24.3844 5.93283C23.1377 5.91359 22.3125 5.94638 21.737 6.03797ZM10.0328 18.7491C9.50583 19.0497 7.03785 20.3764 5.34183 21.2709C1.58766 23.2508 0.792332 23.7604 0.457183 24.4001C0.368382 24.5696 0.325745 24.9643 0.325745 25.6164V26.5819L8.00854 26.6488C12.234 26.6857 22.7463 26.6857 31.369 26.6488L47.0466 26.5818L47.1065 26.2623C47.2241 25.6362 47.0895 24.774 46.8012 24.3079C46.3952 23.6514 45.8954 23.3372 41.8943 21.2234C41.3834 20.9534 40.84 20.6591 40.6867 20.5691C40.3382 20.3646 39.713 20.029 38.1164 19.1891L36.8626 18.5294L23.6335 18.5333L10.4044 18.5372L10.0328 18.7491ZM11.5655 20.7261C11.1474 20.8755 10.6035 21.2288 10.377 21.4982C10.1471 21.7716 9.89349 22.4482 9.89404 22.7869C9.89498 23.432 10.0616 23.7895 10.584 24.2669C12.1633 25.7103 15.0429 24.9657 15.3318 23.0392C15.4612 22.1754 14.8827 21.2511 13.961 20.8492C13.3211 20.5703 12.1677 20.511 11.5655 20.7261ZM22.5975 20.7137C21.199 21.2273 20.5232 22.5737 21.106 23.6849C21.3538 24.1571 21.6096 24.3883 22.2479 24.717C22.7021 24.9507 22.8569 24.9801 23.6413 24.982C24.4677 24.9838 24.5601 24.9643 25.0985 24.673C26.8871 23.7049 26.6528 21.4105 24.6999 20.7694C24.0133 20.544 23.1236 20.5204 22.5975 20.7137ZM33.5341 20.7583C32.6645 21.1074 31.9161 22.0234 31.9106 22.7452C31.9045 23.5461 32.4991 24.3946 33.3216 24.7589C34.0293 25.0724 35.2819 25.0753 35.9704 24.7651C36.5434 24.5069 37.1318 23.9045 37.2956 23.4082C37.4715 22.8751 37.3627 22.1183 37.0506 21.7044C36.7263 21.2743 36.6155 21.1837 36.0422 20.8795C35.4028 20.5402 34.2197 20.483 33.5341 20.7583ZM0.975978 27.7169C0.975978 27.9026 2.30691 29.0111 3.125 29.5069L3.99492 30.034L23.5019 30.0642L43.0091 30.0943L43.52 29.8281C44.5561 29.2879 45.5069 28.577 46.1137 27.8882L46.3392 27.6327H23.6574C10.1605 27.6327 0.975978 27.6668 0.975978 27.7169ZM7.20856 31.4398C7.99228 31.8383 10.6478 32.9973 13.5924 34.2256C14.5222 34.6135 14.5595 34.6404 14.8312 35.1218C15.1466 35.6808 15.5242 36.0348 16.0707 36.2839C16.42 36.4431 16.8752 36.4534 23.6496 36.4553L30.8571 36.4573L31.4067 36.1826C31.9385 35.9169 32.1013 35.7361 32.6981 34.7482C32.7492 34.6636 33.3762 34.3515 34.0915 34.0548C38.3542 32.286 40.9189 31.1493 40.9189 31.0287C40.9189 31.0001 33.1336 30.9789 23.6181 30.9815L6.31719 30.9862L7.20856 31.4398Z" fill="#DDDDDD"/>
</g>
</g>
<defs>
<clipPath id="clip0_19_7801">
<rect width="47.9846" height="47.56" fill="white" transform="translate(0.00767517 0.229996)"/>
</clipPath>
</defs>
</svg>
