<svg width="24" height="38" viewBox="0 0 24 38" fill="none" xmlns="http://www.w3.org/2000/svg">
<path fill-rule="evenodd" clip-rule="evenodd" d="M8.58026 0.49742C7.8976 0.68541 7.00929 1.23014 6.48991 1.77929C5.48831 2.83835 5.06825 4.21322 5.06825 6.43248V7.76879L4.81037 7.82034C4.33226 7.91602 3.5386 8.25051 3.06402 8.55634C1.95753 9.26944 1.2167 10.266 0.832225 11.5581C0.683515 12.0579 0.664279 12.7085 0.633365 18.2886C0.593151 25.5379 0.604277 25.6608 1.42562 27.0404C2.12331 28.2122 3.29791 29.0826 4.52399 29.3362L5.04808 29.4446L5.09398 31.1352C5.14303 32.9389 5.23925 33.4656 5.69579 34.4298C6.00985 35.0932 6.88509 36.0304 7.53097 36.3949C8.48467 36.9329 9.16164 37.0527 11.2436 37.051C13.3033 37.0493 14.0221 36.9461 14.8339 36.5366C15.6823 36.1086 16.0988 35.751 16.5819 35.0358C17.32 33.9433 17.4481 33.4285 17.5098 31.3068L17.562 29.5088L18.3129 29.2572C19.5145 28.8543 20.2877 28.2804 20.9507 27.2991C21.6324 26.2904 21.8814 25.2127 21.8814 23.2711V22.112L22.1484 22.0533C22.6332 21.9468 22.9693 21.4312 23.2098 20.4251C23.5298 19.0867 23.4862 17.8008 23.0786 16.5506C22.8703 15.9119 22.6121 15.6076 22.1453 15.4507L21.835 15.3465L21.7809 13.4967C21.7512 12.4794 21.6833 11.5216 21.63 11.3683C21.1664 10.0355 20.2148 8.88412 19.0947 8.30096C18.9159 8.20779 18.4979 8.03874 18.1658 7.92523L17.562 7.71881L17.589 6.71041C17.6553 4.22799 17.1926 2.78217 15.9481 1.58332C15.3674 1.02402 14.7935 0.70231 14.0142 0.499373C13.3138 0.316904 9.24088 0.315418 8.58026 0.49742ZM5.16057 10.6655C4.42785 10.8884 3.94456 11.4054 3.78095 12.1413C3.72799 12.379 3.71296 13.6576 3.744 15.2763L3.79628 18.01H4.37443C5.08515 18.01 5.18099 18.1046 5.14303 18.7688L5.11466 19.264L4.44122 19.2913L3.76778 19.3186V22.2267C3.76778 24.209 3.80243 25.2354 3.87662 25.4506C4.03743 25.9167 4.29408 26.225 4.72815 26.4738C5.10863 26.6918 5.15891 26.6957 7.92461 26.7235L10.7346 26.7517V25.9604C10.7346 25.0884 10.806 24.9768 11.3643 24.9768C11.8109 24.9768 11.9422 25.2173 11.9422 26.0354V26.7542L14.6592 26.7248C17.2594 26.6966 17.3929 26.6863 17.7622 26.4889C18.7223 25.9754 18.8161 25.5832 18.8161 22.0803V19.3105H18.1658H17.5156V18.7067V18.1029H18.1658H18.8161L18.8155 15.2465C18.8152 13.4711 18.7766 12.2495 18.7135 12.0185C18.5641 11.4716 18.2026 11.0518 17.6658 10.8018C17.2005 10.5852 17.1351 10.5805 14.5663 10.5797L11.9422 10.5787L11.9408 11.2522C11.9399 11.6226 11.9086 11.9717 11.8711 12.0278C11.743 12.2197 11.389 12.3482 11.1523 12.2889C10.7759 12.1944 10.6417 11.9103 10.6417 11.2083V10.5787L8.01752 10.5867C6.57429 10.5911 5.28856 10.6266 5.16057 10.6655ZM10.9203 13.5512C10.7501 13.7215 10.7346 13.8608 10.7346 15.2233C10.7346 16.0407 10.7122 16.7095 10.6847 16.7095C10.6573 16.7095 10.2142 16.3322 9.69996 15.871C8.39206 14.6981 8.17944 14.546 7.94979 14.6188C7.8438 14.6525 7.69259 14.7785 7.61364 14.899C7.41466 15.2026 7.51164 15.3488 8.48115 16.2066C10.2892 17.8065 10.3627 17.8848 10.3664 18.2141C10.3722 18.7504 11.0312 19.2866 11.5306 19.1612C11.7161 19.1147 11.8753 19.2051 12.3845 19.6471C12.7287 19.9458 13.0313 20.212 13.0568 20.2384C13.385 20.5792 14.7255 21.7107 14.8581 21.7589C15.1302 21.8578 15.472 21.5847 15.472 21.2682C15.472 21.046 15.2877 20.8309 14.3795 19.9931C13.7787 19.4388 13.089 18.8128 12.8468 18.6021C12.6047 18.3913 12.4066 18.1653 12.4066 18.0999C12.4066 18.0346 12.2981 17.8388 12.1654 17.6649C11.9261 17.3511 11.9241 17.3344 11.91 15.5346C11.8959 13.7484 11.8923 13.718 11.6764 13.543C11.3951 13.3152 11.1538 13.3178 10.9203 13.5512Z" fill="#DDDDDD"/>
</svg>
