<svg width="43" height="44" viewBox="0 0 43 44" fill="none" xmlns="http://www.w3.org/2000/svg">
<path fill-rule="evenodd" clip-rule="evenodd" d="M35.6011 0.336762C34.9685 0.668262 34.8968 0.869353 34.8445 2.45691L34.7976 3.88024L33.5272 3.92712C32.1059 3.9795 31.8878 4.05827 31.6241 4.61391C31.3114 5.27305 31.5244 5.98474 32.1484 6.36505C32.4109 6.52521 32.6219 6.55144 33.6492 6.55174L34.8445 6.55212V7.91618C34.8445 9.39565 34.908 9.64847 35.3709 10.0126C35.7061 10.2763 36.4417 10.2795 36.863 10.0191C37.3498 9.71824 37.4695 9.28324 37.4695 7.81585V6.55212L38.6179 6.55002C39.553 6.54835 39.8412 6.51402 40.1689 6.36535C41.0804 5.95165 41.1267 4.66577 40.2498 4.12371C39.9691 3.95018 39.787 3.92712 38.7006 3.92712H37.4695V2.64424C37.4695 1.54267 37.4423 1.3052 37.2774 0.964512C36.9476 0.28323 36.2221 0.0115409 35.6011 0.336762ZM2.21012 0.822102C2.02918 0.968635 1.98643 1.10682 1.95625 1.64242L1.91997 2.28648L1.46481 2.25432C1.07809 2.22695 0.973843 2.25798 0.770871 2.46094C0.484093 2.74774 0.46356 3.10868 0.719499 3.36462C0.860593 3.50571 1.03197 3.55212 1.41203 3.55212H1.91706L1.95381 4.20149C1.99581 4.94477 2.18087 5.23962 2.60538 5.23962C3.02349 5.23962 3.22432 4.93838 3.29847 4.2L3.36352 3.55212H3.85514C4.20708 3.55212 4.38674 3.5055 4.48758 3.38802C4.98099 2.81352 4.57214 2.2396 3.66952 2.2396H3.36635L3.32679 1.61767C3.29435 1.10945 3.24764 0.963852 3.07102 0.820791C2.79558 0.597762 2.48658 0.598229 2.21012 0.822102ZM12.0164 1.9037C10.5204 2.19639 9.14624 2.89341 8.46879 3.70315C7.84094 4.4535 7.89177 5.43077 8.58897 6.01744C9.16017 6.49812 9.29877 6.48394 11.7351 5.69635C12.5086 5.44632 13.1689 5.24129 13.2026 5.24074C13.2652 5.23962 14.2406 6.64165 15.1429 8.02979L15.6464 8.80427L15.2658 9.38918C14.5919 10.4245 14.3187 11.2748 14.3097 12.3646L14.3039 13.0677L13.75 13.33C12.8125 13.774 12.0634 14.6361 11.6647 15.7297C11.5189 16.1299 11.4709 16.5001 11.4635 17.2823L11.4539 18.3093L10.6101 18.4657C8.31108 18.8919 6.83611 19.4668 6.1603 20.2C5.84924 20.5375 5.78199 20.6774 5.78199 20.9873C5.78199 21.9653 7.40752 22.8454 10.1137 23.3327C10.6884 23.4362 11.225 23.5186 11.3062 23.5158C11.3924 23.5129 11.5701 23.2687 11.7329 22.9299C12.3046 21.7392 13.7224 20.6947 15.1383 20.4212C16.1843 20.2192 17.6365 20.4949 18.5376 21.0667L18.9651 21.3379L19.454 20.7935C19.7904 20.4189 20.139 20.1525 20.5714 19.9396C21.1318 19.6638 21.283 19.6308 21.9649 19.6357C22.6313 19.6404 22.8091 19.6801 23.3451 19.9439C23.7631 20.1497 24.1204 20.4236 24.4595 20.7984L24.9586 21.35L25.4534 21.0382C26.0313 20.6738 27.202 20.3334 27.8772 20.3334C29.1966 20.3334 30.4301 20.8576 31.3759 21.8203C31.73 22.181 32.1165 22.6904 32.263 22.99C32.4059 23.282 32.5729 23.5209 32.6343 23.5209C33.014 23.5209 34.8784 23.108 35.6419 22.8549C37.8973 22.107 38.615 20.9835 37.4589 20.0107C36.6289 19.3123 34.2945 18.544 32.2848 18.3078C31.991 18.2733 31.7488 18.2403 31.7464 18.2345C31.7439 18.2288 31.708 17.687 31.6665 17.0307C31.598 15.9486 31.5619 15.7784 31.2787 15.2026C30.8636 14.3589 30.209 13.6809 29.4475 13.3059L28.8371 13.0055L28.8781 12.5379C28.9578 11.6284 28.5139 10.277 27.8494 9.40577C27.6286 9.11635 27.6205 9.06591 27.7117 8.55171C27.8063 8.01805 27.7644 7.6413 27.5506 7.10494C27.3601 6.62682 26.6344 6.15835 24.2976 5.00494C20.9044 3.33012 18.7507 2.49805 16.6101 2.03485C15.4958 1.79373 12.95 1.72107 12.0164 1.9037ZM4.38155 8.87965C3.83444 9.17305 3.71949 9.51994 3.71949 10.877V12.064L2.57105 12.0972C1.56278 12.1262 1.3795 12.157 1.06881 12.3503C0.629216 12.6234 0.438249 12.9804 0.438249 13.5286C0.438249 13.8677 0.495716 14.0172 0.727183 14.2809C1.09843 14.7038 1.46884 14.801 2.71167 14.8015L3.71949 14.8021L3.71967 16.0443C3.71979 17.4762 3.83264 17.8319 4.37577 18.1119C4.76079 18.3104 5.37485 18.2812 5.73185 18.0473C6.18224 17.7522 6.28985 17.3904 6.32782 16.0443L6.36288 14.8021H7.38794C8.51285 14.8021 8.86947 14.7042 9.25077 14.291C9.56199 13.9537 9.58338 13.1662 9.29182 12.7757C8.86514 12.2042 8.67305 12.1328 7.47224 12.0991L6.36297 12.0681L6.32752 10.8804C6.30052 9.97427 6.25282 9.6195 6.12627 9.38391C5.79027 8.75824 5.02197 8.53624 4.38155 8.87965ZM39.9895 15.2715C39.906 15.3204 39.7676 15.4672 39.682 15.5978C39.4999 15.8758 39.571 16.0745 40.0245 16.5538L40.307 16.8524L39.9664 17.2504C39.5566 17.7292 39.5055 18.176 39.8341 18.4061C40.1799 18.6484 40.4536 18.585 40.8187 18.1783L41.1541 17.8045L41.56 18.1783C42.0156 18.5983 42.3361 18.6544 42.6259 18.3646C42.916 18.0745 42.865 17.7014 42.4853 17.3334C42.3049 17.1584 42.157 16.9686 42.157 16.9115C42.157 16.8544 42.3049 16.6645 42.4853 16.4896C42.9036 16.0842 42.934 15.6608 42.5663 15.3714C42.2037 15.0863 41.9907 15.1304 41.5819 15.5755L41.2163 15.974L40.8466 15.5755C40.4768 15.1769 40.2744 15.1051 39.9895 15.2715ZM2.032 21.1771C1.88022 21.3289 1.8445 21.4896 1.8445 22.0209V22.6771H1.28884C0.800121 22.6771 0.709654 22.7069 0.538843 22.9241C0.283654 23.2485 0.293499 23.4784 0.574654 23.7594C0.76356 23.9484 0.897621 23.9896 1.32465 23.9896H1.8445V24.5811C1.8445 25.3217 1.95812 25.4855 2.48555 25.5055C2.99714 25.5249 3.05997 25.4288 3.06185 24.6224L3.06327 23.9896H3.58308C4.01011 23.9896 4.14417 23.9484 4.33308 23.7594C4.61182 23.4807 4.62914 23.118 4.37577 22.8646C4.22988 22.7187 4.06329 22.6771 3.62577 22.6771H3.06327V21.9793C3.06327 21.3645 3.03849 21.2641 2.85485 21.1356C2.57067 20.9364 2.25681 20.9523 2.032 21.1771ZM21.0488 21.3141C20.5863 21.5605 20.2485 21.9196 20.1646 22.2541C20.1351 22.3712 20.22 22.6915 20.3654 23.0123C20.5038 23.3178 20.6694 23.7365 20.7334 23.9427L20.8496 24.3177H21.9506H23.0516L23.2771 23.7179C23.4011 23.388 23.5921 22.9733 23.7016 22.7961L23.9005 22.4743L23.6303 22.0925C23.4817 21.8824 23.2004 21.5819 23.0051 21.4246C22.7093 21.1864 22.5529 21.1339 22.0676 21.1102C21.592 21.0868 21.4051 21.1243 21.0488 21.3141ZM15.1929 21.8286C13.5029 22.232 12.2791 24.0777 12.6097 25.7244C12.8568 26.9543 13.6963 27.9938 14.7778 28.4087C15.4456 28.665 16.5112 28.6822 17.1726 28.4472C18.4891 27.9798 19.4695 26.609 19.4695 25.2355C19.4695 24.2094 18.8605 23.0038 18.0358 22.3974C17.3139 21.8664 16.0736 21.6183 15.1929 21.8286ZM27.1101 21.8232C24.5962 22.4964 23.6446 25.6164 25.3792 27.4982C26.245 28.4375 27.5204 28.8458 28.6883 28.5575C30.0837 28.2131 30.9651 27.313 31.3401 25.8495C31.6048 24.8164 31.2234 23.6408 30.3354 22.7528C29.6981 22.1155 28.9921 21.8069 28.0964 21.7739C27.7086 21.7596 27.2648 21.7818 27.1101 21.8232ZM15.2358 23.7051C14.8024 23.9408 14.5291 24.2863 14.4016 24.7597C14.281 25.2076 14.3516 25.5956 14.6474 26.1102C15.2145 27.0969 16.7875 27.0846 17.371 26.0889C17.6581 25.599 17.7004 24.8414 17.4661 24.3883C17.0734 23.6288 15.9877 23.2961 15.2358 23.7051ZM27.1411 23.7109C26.6705 23.9594 26.386 24.3905 26.3338 24.9339C26.2688 25.6101 26.3724 25.975 26.7354 26.3488C27.8193 27.4647 29.7027 26.6079 29.5741 25.0574C29.4726 23.8339 28.2203 23.1408 27.1411 23.7109ZM32.879 24.7334C32.8257 24.8332 32.782 25.2183 32.782 25.5892C32.782 26.2492 32.7979 26.294 33.5217 27.6813C34.8219 30.1734 35.8756 32.2977 35.8795 32.4347C35.8816 32.5079 35.9554 32.4411 36.0436 32.2865C36.1729 32.0596 36.203 31.7696 36.1998 30.7865C36.1953 29.4716 36.0885 28.9786 35.4964 27.5404C34.6601 25.5084 33.265 24.0124 32.879 24.7334ZM10.2093 24.8338C9.84952 25.0531 9.31441 25.8539 8.73738 27.0365C7.93282 28.6854 7.57977 30.2841 7.75197 31.4984C7.90479 32.576 7.95267 32.5813 8.45667 31.5776C8.70108 31.0909 9.05752 30.3974 9.24867 30.0365C10.8967 26.9249 11.2833 26.0961 11.2159 25.8177C11.1785 25.663 11.1429 25.3361 11.1368 25.0912C11.1259 24.6534 11.1205 24.6459 10.8211 24.6462C10.6535 24.6464 10.3782 24.7308 10.2093 24.8338ZM20.8333 25.7943C20.8131 25.8588 20.7688 26.0802 20.7349 26.2865C20.7008 26.4927 20.5499 26.9206 20.3994 27.2374C20.2489 27.5542 20.1258 27.8617 20.1258 27.9208C20.1258 28.1593 20.5156 28.7694 20.8375 29.0348C21.7651 29.7994 23.0955 29.5109 23.6198 28.4315C23.7997 28.0613 23.8081 27.9839 23.6971 27.714C23.6286 27.5476 23.4405 27.0227 23.2789 26.5477L22.9851 25.6838L21.9275 25.6805C21.161 25.678 20.8598 25.7094 20.8333 25.7943ZM31.4681 28.4853C30.5382 29.4504 29.5064 29.93 28.1092 30.0465L27.3328 30.1113L27.3946 30.4958C27.5303 31.3393 28.0563 31.7796 29.0812 31.9077C29.6998 31.985 29.6598 31.9141 30.0083 33.5521C30.5066 35.8943 31.0366 38.435 31.5596 40.9898C31.9008 42.6561 32.142 43.6299 32.227 43.6839C32.3002 43.7301 33.9681 43.7687 35.9334 43.7696C40.7954 43.7713 40.6182 43.9534 38.8872 40.7331C37.5645 38.2723 37.3174 37.8169 36.6706 36.6459C36.1621 35.7251 33.757 31.2239 32.6508 29.1224C32.3047 28.465 32.0134 27.932 32.0033 27.9379C31.9933 27.9438 31.7524 28.1902 31.4681 28.4853ZM11.3836 28.9818C11.1049 29.5103 10.6519 30.3857 10.3768 30.9271C9.91938 31.8276 9.36811 32.8563 8.61858 34.2084C7.99938 35.3253 4.29511 42.1539 4.10697 42.525C3.84811 43.0359 3.85479 43.2583 4.13714 43.5407L4.36724 43.7709H7.98699C10.1891 43.7709 11.6746 43.7344 11.7798 43.6783C11.8856 43.6217 11.9774 43.431 12.0166 43.1863C12.0906 42.7234 12.5232 40.5522 12.8526 38.9896C12.9776 38.3966 13.3155 36.7935 13.6035 35.4271C13.8915 34.0607 14.1796 32.7346 14.2436 32.4803L14.3601 32.0178L15.091 31.8624C16.1518 31.6371 16.468 31.353 16.6056 30.5014L16.6669 30.1224L15.7479 30.0229C14.3181 29.868 13.4028 29.4396 12.4711 28.4894C12.2209 28.2343 11.988 28.0246 11.9534 28.0233C11.9187 28.022 11.6623 28.4533 11.3836 28.9818ZM18.5665 29.2986L18.0904 29.6027L18.0406 30.4008C17.9544 31.7829 17.3333 32.6483 16.1749 33.0001C15.782 33.1194 15.5217 33.2526 15.4928 33.3491C15.467 33.435 15.3621 33.906 15.2596 34.3959C15.1572 34.8857 14.834 36.4044 14.5416 37.7709C13.7844 41.3091 13.3801 43.4207 13.4413 43.5197C13.4848 43.59 30.5208 43.5189 30.602 43.4477C30.6267 43.4263 30.0895 40.7207 29.7819 39.3177C29.5021 38.0411 28.6376 33.9243 28.5724 33.5581C28.5211 33.2695 28.471 33.2246 28.0931 33.1283C27.2863 32.9225 26.4783 32.2446 26.1639 31.5096C26.0821 31.3181 25.9999 30.824 25.9814 30.4115L25.9477 29.6615L25.4559 29.3424L24.9641 29.0231L24.7269 29.3424C23.8028 30.5856 22.5127 31.1454 21.2756 30.8397C20.6325 30.6808 19.9018 30.1616 19.4418 29.5368L19.0425 28.9944L18.5665 29.2986ZM23.2195 32.0625C22.3466 32.4681 21.9108 32.4965 21.0988 32.2011C20.1761 31.8655 19.9973 31.8788 19.7985 32.2979C19.5956 32.7255 19.6954 32.9823 20.1923 33.3103C21.0574 33.8814 22.3916 33.9606 23.3964 33.5006C24.1278 33.1659 24.2705 33.0179 24.2007 32.6672C24.1073 32.1979 23.9594 31.7706 23.8919 31.7751C23.8573 31.7775 23.5546 31.9069 23.2195 32.0625Z" fill="#DDDDDD"/>
</svg>
