<svg width="39" height="42" viewBox="0 0 39 42" fill="none" xmlns="http://www.w3.org/2000/svg">
<path fill-rule="evenodd" clip-rule="evenodd" d="M18.7422 0.589706L18.4995 0.878083V3.02226V5.1664L18.0073 5.19482L17.5151 5.2231L17.4894 6.84032L17.4638 8.45749L16.7863 8.46666C16.4138 8.47176 15.8347 8.48235 15.4995 8.4901L14.8901 8.50437L14.8644 6.88716L14.8388 5.26999H12.7785H10.7183L10.7129 7.07466C10.7099 8.06732 10.6887 9.06049 10.6658 9.28185C10.6165 9.7576 10.7332 9.89569 11.6649 10.4646C11.995 10.6661 12.5921 11.0408 12.9917 11.297L13.7183 11.763V17.704V23.645H12.7808H11.8433V20.517C11.8433 17.4503 11.8393 17.384 11.64 17.1307C11.319 16.7225 10.9327 16.6136 9.80721 16.6143C8.63099 16.6149 8.21296 16.7087 7.89882 17.0428C7.68685 17.2681 7.66821 17.3715 7.62449 18.5649L7.57765 19.8453L6.54638 19.8255C5.97921 19.8146 5.28312 19.8046 4.99949 19.8034L4.48388 19.801L4.47985 18.5955C4.47385 16.801 4.36585 16.6912 2.54918 16.6313C1.11273 16.5839 0.775491 16.6715 0.439705 17.179L0.201385 17.5391L0.280136 29.5065L0.358877 41.474L0.621934 41.6998L0.884991 41.9261H7.35779C14.5229 41.9261 14.2876 41.9458 14.6664 41.3244C14.8331 41.051 14.8427 40.7566 14.8444 35.8325C14.8453 32.9708 14.8771 30.583 14.915 30.5263C15.1144 30.2276 15.4121 30.2075 19.6183 30.2075C23.7183 30.2075 23.8488 30.213 24.0308 30.395C24.2137 30.5779 24.2183 30.7075 24.2183 35.7168C24.2183 40.5337 24.2289 40.8714 24.3919 41.1778C24.4873 41.3574 24.7045 41.5991 24.8744 41.7153L25.1835 41.9261H31.6008C38.659 41.9261 38.4385 41.9437 38.7733 41.3553C38.9274 41.0836 38.9377 40.3498 38.9364 29.4014C38.9347 16.6159 38.9609 17.2178 38.39 16.8302C38.177 16.6856 37.9373 16.6606 36.7641 16.6606C35.5154 16.6606 35.3638 16.6787 35.1235 16.8565C34.673 17.1901 34.5804 17.493 34.5465 18.7465L34.5155 19.895H33.0364H31.5574L31.5096 18.6451C31.438 16.7681 31.2739 16.6138 29.3508 16.6138C28.2909 16.6138 28.1543 16.6334 27.8663 16.8275C27.3178 17.197 27.3149 17.217 27.3134 20.5747L27.312 23.645H26.3745H25.437L25.4378 17.6684L25.4386 11.6919L26.0238 11.3225C26.3455 11.1193 26.9253 10.7539 27.312 10.5103C28.445 9.79669 28.3433 10.0855 28.3433 7.5856C28.3433 6.01163 28.3118 5.36985 28.2308 5.28876C28.1506 5.20857 27.5704 5.17626 26.2151 5.17626H24.312V6.81687V8.45749H22.9549H21.5977L21.572 6.84032L21.5464 5.2231L20.9566 5.19507L20.3668 5.16705L20.3941 4.44507L20.4214 3.7231L21.9785 3.33837C22.8349 3.12679 23.5837 2.9239 23.6425 2.88752C23.7013 2.85113 23.7495 2.70319 23.7495 2.55876C23.7495 2.32155 23.677 2.26296 23.0032 1.9549C22.5926 1.76732 22.232 1.61376 22.2018 1.61376C22.1715 1.61376 21.5543 1.31843 20.8301 0.957489C20.106 0.59655 19.3946 0.301239 19.2492 0.301239C19.0692 0.301239 18.9076 0.393206 18.7422 0.589706ZM18.9683 14.7274C18.4298 14.8448 18.0454 15.0958 17.7725 15.5077C17.5253 15.8811 17.5138 15.9518 17.4827 17.3058C17.4631 18.1596 17.491 18.8512 17.5535 19.06C17.741 19.6859 18.4873 20.0829 19.4744 20.0819C20.2337 20.0813 20.6858 19.9453 21.0804 19.5986C21.5692 19.1695 21.7178 18.5491 21.6708 17.1353C21.635 16.0576 21.6183 15.9763 21.3518 15.5794C20.8718 14.8645 19.9125 14.5215 18.9683 14.7274ZM19.0961 16.0672C18.7797 16.2204 18.687 16.555 18.687 17.5442C18.687 18.6053 18.7176 18.6554 19.4154 18.738C19.8108 18.7849 19.913 18.7628 20.0815 18.5942C20.2595 18.4163 20.2808 18.2893 20.2808 17.4064C20.2808 16.4816 20.2658 16.4028 20.0506 16.1876C19.8065 15.9435 19.4455 15.898 19.0961 16.0672ZM6.37452 24.9783C5.86859 25.1124 5.32593 25.6588 5.18759 26.1733C5.11143 26.4568 5.08546 27.2176 5.10749 28.524C5.13985 30.4378 5.14246 30.4593 5.39168 30.8357C5.55552 31.0833 5.81515 31.3014 6.13662 31.4616C7.25035 32.0166 8.87429 31.5793 9.27676 30.616C9.43332 30.2413 9.45959 26.6083 9.30968 26.0683C9.05391 25.1475 7.67223 24.6345 6.37452 24.9783ZM31.011 24.9633C30.4793 25.0914 29.9822 25.5303 29.8235 26.0115C29.6448 26.5532 29.5906 29.8623 29.752 30.3662C29.9138 30.871 30.2835 31.3301 30.6522 31.4842C30.8273 31.5574 31.333 31.6232 31.7883 31.6322C32.459 31.6453 32.6773 31.6126 32.9839 31.4527C33.8901 30.9798 34.0628 30.4824 34.0598 28.3526C34.0584 27.4908 34.0156 26.6045 33.9646 26.383C33.8348 25.8204 33.4652 25.3018 33.0544 25.1059C32.6426 24.9096 31.5504 24.8333 31.011 24.9633Z" fill="#DDDDDD"/>
</svg>
