<svg width="41" height="40" viewBox="0 0 41 40" fill="none" xmlns="http://www.w3.org/2000/svg">
<path fill-rule="evenodd" clip-rule="evenodd" d="M11.6509 0.11849C11.5487 0.138533 11.2352 0.200786 10.9542 0.256711C9.77267 0.491709 8.48643 1.50707 7.96858 2.61378C7.62114 3.35618 7.42805 4.2833 7.42597 5.21824C7.42487 5.74382 7.3813 6.02557 7.27841 6.17254C7.10987 6.4131 6.30674 6.83502 5.56659 7.0718C3.91379 7.60061 2.90034 8.18993 2.05721 9.11243C1.50811 9.71325 0.911108 10.7544 0.696345 11.4859C0.484554 12.207 0.412191 13.6982 0.541868 14.669C0.708515 15.9157 1.55817 18.1835 2.39132 19.6051C2.7746 20.2589 2.78191 20.3254 2.96531 24.8157C3.1048 28.2313 3.26952 29.0096 4.11966 30.2723C5.21566 31.9001 6.71325 32.7906 8.56584 32.9162C9.30803 32.9665 9.44617 33.0081 10.0866 33.373C11.1558 33.9823 11.7299 34.4676 12.4514 35.3725C13.0817 36.1628 14.5097 37.4939 14.7282 37.4948C14.7858 37.495 14.8838 37.5565 14.9461 37.6315C15.2004 37.938 16.9536 38.8294 18.0242 39.1967C20.3752 40.0035 22.8482 39.516 25.5793 37.7079C26.501 37.098 27.3543 36.3031 28.6388 34.8581C29.2083 34.2176 29.7529 33.7939 30.838 33.1475C31.0717 33.0084 31.3979 32.934 31.9527 32.8934C33.0707 32.8118 33.4724 32.7075 34.3406 32.2737C35.6722 31.6083 36.6975 30.4184 37.2107 28.9426C37.4626 28.2183 37.5966 26.6398 37.788 22.1392C37.8543 20.582 37.9059 20.0767 38.0111 19.9563C38.4941 19.4032 39.6516 16.7101 39.9136 15.5298C40.0079 15.1055 40.0618 14.3718 40.0673 13.4366C40.0741 12.1949 40.0474 11.9073 39.8703 11.3465C39.5132 10.2147 38.9348 9.387 37.8679 8.48196C37.1417 7.86593 37.0216 7.80312 35.6167 7.30493C34.3886 6.86946 33.5336 6.45539 33.2771 6.17186C33.1396 6.02001 33.1084 5.81172 33.1012 4.99772C33.0946 4.26912 33.0396 3.83671 32.8928 3.35792C32.4471 1.9056 31.3085 0.759234 29.8811 0.325716C29.3213 0.155646 29.0838 0.135731 28.1515 0.180531C26.8813 0.241467 26.599 0.314463 25.8594 0.773247L25.3059 1.11649L23.1229 1.1933C20.5287 1.28452 15.4071 1.12753 15.0414 0.945567C14.9137 0.88204 14.6002 0.722927 14.3448 0.591924C13.6643 0.243208 12.2658 -0.00266043 11.6509 0.11849ZM11.5139 4.0523C11.1097 4.45656 11.1909 5.0821 11.6728 5.27472C13.297 5.92395 14.2188 6.62555 15.0566 7.85005L15.5602 8.58629L15.9038 8.46811C16.7943 8.16195 16.8352 8.02738 16.31 7.13024C15.6234 5.95775 14.1144 4.6454 12.8381 4.11081C12.1468 3.82129 11.7619 3.80426 11.5139 4.0523ZM27.6811 4.15149C25.8976 4.9953 24.3463 6.55187 23.9209 7.9247C23.8661 8.10186 23.9214 8.14912 24.3881 8.32378C24.6793 8.43274 24.9731 8.50056 25.0411 8.47444C25.109 8.44833 25.3124 8.19613 25.4928 7.91396C26.2658 6.70572 27.3344 5.82594 28.5273 5.41582C29.1746 5.19327 29.3856 4.93802 29.3014 4.47877C29.1779 3.80464 28.6427 3.69662 27.6811 4.15149ZM19.0345 9.34798C18.3454 9.74604 17.4682 10.2574 17.085 10.4845L16.3884 10.8974V13.1049V15.3123L18.1997 16.3209C19.196 16.8757 20.0989 17.3516 20.2062 17.3785C20.4197 17.4321 22.0195 16.6197 23.4823 15.7149L24.3305 15.1903V13.0778V10.9655L23.5641 10.5134C23.1426 10.2647 22.6515 9.97037 22.4727 9.85907C22.0249 9.58051 20.9065 8.93938 20.5672 8.76668C20.2902 8.62578 20.2745 8.63173 19.0345 9.34798ZM5.83432 10.871C5.01557 11.1636 4.5733 11.588 4.30451 12.339C4.04467 13.0651 4.16263 14.4712 4.5604 15.3873C5.46786 17.4776 6.80502 19.2013 7.91181 19.7078C9.08509 20.2447 9.74303 20.2999 14.2639 20.2408L16.0407 20.2176L16.1569 19.9373C16.2207 19.7831 16.4386 19.4204 16.6411 19.1313C17.0004 18.6184 17.005 18.6022 16.8285 18.4595C16.0091 17.7968 12.814 15.1427 10.9542 13.5799C8.34689 11.3888 8.19058 11.2722 7.45553 10.97C6.85249 10.722 6.33888 10.6907 5.83432 10.871ZM33.4802 10.8684C32.5038 11.19 32.4383 11.2396 27.9997 15.0168C27.3866 15.5385 26.1884 16.5233 25.3369 17.2052C24.4854 17.887 23.7614 18.4893 23.7279 18.5436C23.6944 18.5978 23.781 18.7772 23.9205 18.9422C24.0599 19.1072 24.2685 19.455 24.3838 19.7151L24.5937 20.188L25.9252 20.2489C30.2518 20.4468 32.1417 20.2124 33.3218 19.3314C34.1744 18.6948 35.3243 17.1161 35.8837 15.814C36.7127 13.8842 36.7164 12.617 35.8962 11.5417C35.4538 10.9617 34.2314 10.6211 33.4802 10.8684ZM15.3868 22.3589C14.0964 22.509 11.3206 23.4431 9.9461 24.1898C7.77498 25.3691 6.78319 26.4645 6.88901 27.5659C6.97929 28.5051 7.84475 29.1329 9.04998 29.1336C9.56248 29.1339 9.92206 29.058 10.7474 28.7754C11.3234 28.5782 11.8782 28.3411 11.9804 28.2487C12.0826 28.1562 12.2337 27.848 12.3164 27.5637C12.5356 26.8095 13.0315 25.6902 13.4192 25.0743C13.6052 24.7788 14.2828 24.025 14.9249 23.3991C15.5671 22.7732 16.0755 22.2667 16.0547 22.2733C16.0338 22.2801 15.7333 22.3186 15.3868 22.3589ZM24.6092 22.3564C24.6092 22.4062 24.6456 22.447 24.6901 22.447C24.841 22.447 26.4557 24.0321 26.8946 24.6111C27.4238 25.3095 28.0645 26.6263 28.3046 27.5095C28.4636 28.094 28.5179 28.1803 28.8422 28.364C29.0406 28.4763 29.5875 28.6958 30.0577 28.8517C31.6898 29.3929 32.9325 29.1662 33.5449 28.2158C33.7867 27.8405 33.8146 27.728 33.7726 27.2961C33.7091 26.6404 33.3686 26.084 32.6809 25.5116C31.0937 24.1907 28.8136 23.1569 26.2637 22.6016C24.7831 22.2793 24.6092 22.2536 24.6092 22.3564ZM15.231 26.4359C14.8135 27.0223 14.1217 29.0174 14.2589 29.2394C14.287 29.2847 16.9854 29.3209 20.3428 29.3209H26.3763L26.3206 28.9261C26.2413 28.3642 25.9538 27.5145 25.6055 26.8128L25.3059 26.209L20.3663 26.185L15.4268 26.161L15.231 26.4359ZM14.9486 32.368C14.9486 32.5607 15.5291 33.3192 16.0317 33.7833C17.1664 34.8311 18.9008 35.769 20.1397 36.005C20.4984 36.0733 20.6476 36.0406 21.3937 35.7297C22.9245 35.0916 24.0084 34.4034 24.8275 33.5489C25.2118 33.1482 25.631 32.5425 25.631 32.3881C25.631 32.3249 23.858 32.2934 20.2898 32.2934C17.3521 32.2934 14.9486 32.327 14.9486 32.368Z" fill="#DDDDDD"/>
</svg>
