<svg width="70" height="19" viewBox="0 0 70 19" fill="none" xmlns="http://www.w3.org/2000/svg">
<path d="M5.19201 14.0001C9.00801 14.0001 11.636 11.3181 11.636 7.44805C11.636 3.52405 8.95401 0.842054 5.06601 0.842054H0.458008V14.0001H5.19201ZM4.85001 2.96605C7.56801 2.96605 9.20601 4.65805 9.20601 7.44805C9.20601 10.1841 7.60401 11.8761 4.97601 11.8761H2.76201V2.96605H4.85001ZM14.5562 3.32605C15.2762 3.32605 15.8702 2.73205 15.8702 1.99405C15.8702 1.25605 15.2762 0.680054 14.5562 0.680054C13.8002 0.680054 13.2062 1.25605 13.2062 1.99405C13.2062 2.73205 13.8002 3.32605 14.5562 3.32605ZM13.4582 14.0001H15.6542V5.10805H13.4582V14.0001ZM20.5691 14.2341C21.9551 14.2341 23.1611 13.6041 23.5391 12.6861L23.7011 14.0001H25.6271V8.60005C25.6271 6.13405 24.1511 4.83805 21.7571 4.83805C19.3451 4.83805 17.7611 6.09805 17.7611 8.02405H19.6331C19.6331 7.08805 20.3531 6.54805 21.6491 6.54805C22.7651 6.54805 23.4851 7.03405 23.4851 8.24005V8.43805L20.8211 8.63605C18.7151 8.79805 17.5271 9.82405 17.5271 11.4621C17.5271 13.1361 18.6791 14.2341 20.5691 14.2341ZM21.2891 12.5781C20.2991 12.5781 19.7591 12.1821 19.7591 11.3721C19.7591 10.6521 20.2811 10.2021 21.6491 10.0761L23.5031 9.93205V10.4001C23.5031 11.7681 22.6391 12.5781 21.2891 12.5781ZM27.2804 9.35605C27.2804 11.9301 28.9364 13.8201 31.4564 13.8201C32.7344 13.8201 33.8324 13.2981 34.3904 12.4701V13.9461C34.3904 15.4221 33.4184 16.3761 31.9064 16.3761C30.5564 16.3761 29.6744 15.6921 29.5304 14.5401H27.3344C27.6044 16.9161 29.3504 18.3741 31.9064 18.3741C34.7864 18.3741 36.5684 16.5201 36.5684 13.5501V5.10805H34.5344L34.4084 6.33205C33.8864 5.37805 32.8424 4.82005 31.5104 4.82005C28.9724 4.82005 27.2804 6.76405 27.2804 9.35605ZM29.4944 9.30205C29.4944 7.84405 30.4304 6.74605 31.8884 6.74605C33.4184 6.74605 34.3364 7.79005 34.3364 9.30205C34.3364 10.8501 33.4004 11.9121 31.8884 11.9121C30.4484 11.9121 29.4944 10.7961 29.4944 9.30205ZM44.421 5.07205C44.061 4.98205 43.755 4.94605 43.449 4.94605C42.261 4.94605 41.415 5.54005 41.037 6.42205L40.911 5.12605H38.841V14.0001H41.037V9.68005C41.037 7.95205 42.027 7.10605 43.611 7.10605H44.421V5.07205ZM48.2019 14.2341C49.5879 14.2341 50.7939 13.6041 51.1719 12.6861L51.3339 14.0001H53.2599V8.60005C53.2599 6.13405 51.7839 4.83805 49.3899 4.83805C46.9779 4.83805 45.3939 6.09805 45.3939 8.02405H47.2659C47.2659 7.08805 47.9859 6.54805 49.2819 6.54805C50.3979 6.54805 51.1179 7.03405 51.1179 8.24005V8.43805L48.4539 8.63605C46.3479 8.79805 45.1599 9.82405 45.1599 11.4621C45.1599 13.1361 46.3119 14.2341 48.2019 14.2341ZM48.9219 12.5781C47.9319 12.5781 47.3919 12.1821 47.3919 11.3721C47.3919 10.6521 47.9139 10.2021 49.2819 10.0761L51.1359 9.93205V10.4001C51.1359 11.7681 50.2719 12.5781 48.9219 12.5781ZM57.6132 14.0001V8.96005C57.6132 7.52005 58.4592 6.83605 59.5032 6.83605C60.5472 6.83605 61.2132 7.50205 61.2132 8.74405V14.0001H63.4092V8.96005C63.4092 7.50205 64.2192 6.81805 65.2812 6.81805C66.3252 6.81805 67.0092 7.48405 67.0092 8.76205V14.0001H69.1872V8.18605C69.1872 6.13405 67.9992 4.83805 65.8392 4.83805C64.4892 4.83805 63.4452 5.50405 62.9952 6.53005C62.5272 5.50405 61.5912 4.83805 60.2412 4.83805C58.9632 4.83805 58.0632 5.41405 57.6132 6.15205L57.4332 5.10805H55.4172V14.0001H57.6132Z" fill="white"/>
</svg>
