<svg width="70" height="108" viewBox="0 0 70 108" fill="none" xmlns="http://www.w3.org/2000/svg">
<path d="M5.19201 81.1019C9.00801 81.1019 11.636 64.8165 11.636 41.3173C11.636 17.4902 8.95401 1.20476 5.06601 1.20476H0.458008V81.1019H5.19201ZM4.85001 14.102C7.56801 14.102 9.20601 24.376 9.20601 41.3173C9.20601 57.9307 7.60401 68.2047 4.97601 68.2047H2.76201V14.102H4.85001ZM14.5562 16.2879C15.2762 16.2879 15.8702 12.6811 15.8702 8.19986C15.8702 3.71862 15.2762 0.221069 14.5562 0.221069C13.8002 0.221069 13.2062 3.71862 13.2062 8.19986C13.2062 12.6811 13.8002 16.2879 14.5562 16.2879ZM13.4582 81.1019H15.6542V27.1085H13.4582V81.1019ZM20.5691 82.5228C21.9551 82.5228 23.1611 78.6974 23.5391 73.1232L23.7011 81.1019H25.6271V48.3124C25.6271 33.3385 24.1511 25.469 21.7571 25.469C19.3451 25.469 17.7611 33.1199 17.7611 44.8149H19.6331C19.6331 39.1313 20.3531 35.8524 21.6491 35.8524C22.7651 35.8524 23.4851 38.8034 23.4851 46.1264V47.3287L20.8211 48.531C18.7151 49.5147 17.5271 55.7447 17.5271 65.6909C17.5271 75.8556 18.6791 82.5228 20.5691 82.5228ZM21.2891 72.4674C20.2991 72.4674 19.7591 70.0628 19.7591 65.1444C19.7591 60.7724 20.2811 58.04 21.6491 57.2749L23.5031 56.4005V59.2422C23.5031 67.5489 22.6391 72.4674 21.2891 72.4674ZM27.2804 52.9029C27.2804 68.5326 28.9364 80.009 31.4564 80.009C32.7344 80.009 33.8324 76.8393 34.3904 71.8116V80.774C34.3904 89.7365 33.4184 95.5293 31.9064 95.5293C30.5564 95.5293 29.6744 91.376 29.5304 84.3809H27.3344C27.6044 98.8083 29.3504 107.661 31.9064 107.661C34.7864 107.661 36.5684 96.4037 36.5684 78.3695V27.1085H34.5344L34.4084 34.5408C33.8864 28.748 32.8424 25.3597 31.5104 25.3597C28.9724 25.3597 27.2804 37.164 27.2804 52.9029ZM29.4944 52.575C29.4944 43.7219 30.4304 37.0547 31.8884 37.0547C33.4184 37.0547 34.3364 43.394 34.3364 52.575C34.3364 61.9747 33.4004 68.4233 31.8884 68.4233C30.4484 68.4233 29.4944 61.6468 29.4944 52.575ZM44.421 26.8899C44.061 26.3434 43.755 26.1248 43.449 26.1248C42.261 26.1248 41.415 29.7317 41.037 35.0873L40.911 27.2178H38.841V81.1019H41.037V54.8703C41.037 44.3777 42.027 39.2406 43.611 39.2406H44.421V26.8899ZM48.2019 82.5228C49.5879 82.5228 50.7939 78.6974 51.1719 73.1232L51.3339 81.1019H53.2599V48.3124C53.2599 33.3385 51.7839 25.469 49.3899 25.469C46.9779 25.469 45.3939 33.1199 45.3939 44.8149H47.2659C47.2659 39.1313 47.9859 35.8524 49.2819 35.8524C50.3979 35.8524 51.1179 38.8034 51.1179 46.1264V47.3287L48.4539 48.531C46.3479 49.5147 45.1599 55.7447 45.1599 65.6909C45.1599 75.8556 46.3119 82.5228 48.2019 82.5228ZM48.9219 72.4674C47.9319 72.4674 47.3919 70.0628 47.3919 65.1444C47.3919 60.7724 47.9139 58.04 49.2819 57.2749L51.1359 56.4005V59.2422C51.1359 67.5489 50.2719 72.4674 48.9219 72.4674ZM57.6132 81.1019V50.4984C57.6132 41.7545 58.4592 37.6012 59.5032 37.6012C60.5472 37.6012 61.2132 41.6452 61.2132 49.1868V81.1019H63.4092V50.4984C63.4092 41.6452 64.2192 37.4919 65.2812 37.4919C66.3252 37.4919 67.0092 41.5359 67.0092 49.2961V81.1019H69.1872V45.7985C69.1872 33.3385 67.9992 25.469 65.8392 25.469C64.4892 25.469 63.4452 29.5131 62.9952 35.7431C62.5272 29.5131 61.5912 25.469 60.2412 25.469C58.9632 25.469 58.0632 28.9666 57.6132 33.4478L57.4332 27.1085H55.4172V81.1019H57.6132Z" fill="white"/>
</svg>
