<svg width="46" height="43" viewBox="0 0 46 43" fill="none" xmlns="http://www.w3.org/2000/svg">
<path fill-rule="evenodd" clip-rule="evenodd" d="M23.4233 0.626531C23.3356 0.686346 23.2927 1.02225 23.2759 1.77947C23.2555 2.69493 23.2084 2.9804 22.9468 3.77146C22.7788 4.27932 22.4515 5.10196 22.2193 5.59958C20.9383 8.3459 20.3875 10.9233 20.549 13.4184L20.6143 14.4263H22.2489H23.8835L23.8098 14.0747C23.7692 13.8814 23.7415 13.1747 23.7483 12.5044C23.7678 10.567 24.0743 9.46443 25.3251 6.83249C26.3105 4.75885 26.4433 4.3544 26.4478 3.41065C26.4537 2.226 25.9467 1.36135 24.9644 0.880781C24.4372 0.622875 23.6251 0.488908 23.4233 0.626531ZM5.35934 14.582C4.24137 14.8215 3.10176 15.6732 2.5549 16.678C2.19332 17.3424 2.06788 18.0566 1.75682 21.2231C1.59979 22.8215 1.40826 24.6778 1.3312 25.3481C0.795413 30.0079 0.157724 36.4048 0.15688 37.1289C0.154351 39.4601 1.31104 41.316 3.41817 42.3617C5.14926 43.2206 7.30017 43.0843 8.94361 42.0116C9.21331 41.8358 9.71959 41.4034 10.0686 41.0511C17.2268 33.8268 17.2979 33.7625 18.8973 33.0799C19.8802 32.6603 20.6707 32.4593 21.8788 32.322C23.986 32.0824 26.4853 32.7878 28.3022 34.1349C28.9323 34.6022 32.4625 38.097 34.801 40.5686C36.186 42.0326 37.2508 42.6566 38.6923 42.8486C41.6054 43.236 44.1674 41.5791 45.0289 38.7495C45.2389 38.0588 45.2376 36.4417 45.0254 34.526C44.8823 33.2345 44.6243 30.7111 44.1734 26.1919C43.8653 23.102 43.6021 20.7084 43.3754 18.9263C43.2156 17.6714 43.1461 17.3836 42.8671 16.8169C42.5196 16.1117 41.8711 15.3894 41.2634 15.0308C40.4469 14.5492 40.0311 14.5093 36.1375 14.5392L32.5468 14.5669L31.9693 14.8692C30.811 15.4755 28.909 16.1558 27.31 16.5357C22.7854 17.6108 18.595 17.1604 13.8978 15.0941L12.5925 14.52L9.0697 14.5309C7.13217 14.5369 5.46246 14.5598 5.35934 14.582ZM10.4579 19.6181C9.97261 19.7915 9.57576 20.0978 9.3382 20.4821C9.1612 20.7684 9.1252 20.9927 9.0844 22.0606L9.03687 23.3053L7.81849 23.3595C6.78614 23.4054 6.53401 23.4477 6.16729 23.6364C5.1772 24.146 4.86134 25.3688 5.47531 26.3156C5.8804 26.9404 6.19673 27.0552 7.72651 27.1327L9.06246 27.2003L9.06349 28.1492C9.06499 29.5173 9.12434 29.7694 9.5437 30.1887C10.0374 30.6824 10.4852 30.8559 11.1489 30.8105C11.5562 30.7826 11.7849 30.7058 12.0819 30.497C12.7407 30.034 12.8481 29.7522 12.891 28.3745L12.9283 27.1763H14.0253C15.2935 27.1763 15.9337 27.0254 16.3034 26.6394C17.199 25.7044 16.9452 24.1955 15.7928 23.6047C15.5014 23.4552 15.2389 23.4263 14.1756 23.4263H12.9062L12.9057 22.3247C12.905 20.955 12.8057 20.5823 12.3092 20.0858C11.7574 19.534 11.134 19.3765 10.4579 19.6181ZM35.4298 20.6235C35.0227 20.825 34.5404 21.3472 34.3905 21.7487C34.0561 22.6447 34.2034 23.6738 34.7561 24.3016C35.7163 25.3925 37.2521 25.428 38.2541 24.3825C39.373 23.2151 38.9709 21.1688 37.502 20.5552C37.0154 20.3518 35.9046 20.3885 35.4298 20.6235ZM21.3906 20.6027C20.7135 20.678 20.455 20.8104 20.214 21.2057C19.8239 21.8454 20.0925 22.7276 20.7831 23.0745C21.0576 23.2125 21.3769 23.2385 22.7968 23.2383C24.3053 23.2381 24.5162 23.2186 24.7844 23.055C25.6163 22.5478 25.5921 21.1234 24.7445 20.705C24.4534 20.5614 22.3415 20.4969 21.3906 20.6027ZM30.238 24.1298C29.4075 24.3963 28.75 25.3347 28.75 26.2535C28.75 27.0142 29.2602 27.8716 29.9551 28.2788C30.5248 28.6127 31.5062 28.6353 32.087 28.328C33.6548 27.4983 33.7701 25.2465 32.2915 24.3324C31.7541 24.0001 30.9035 23.9161 30.238 24.1298ZM20.71 26.6133C20.0635 27.0074 19.842 27.8492 20.2212 28.4709C20.5308 28.9789 20.8429 29.0513 22.7235 29.051C24.5522 29.051 24.8429 28.9832 25.2199 28.4689C25.6098 27.9368 25.3861 26.9973 24.7802 26.6228C24.4874 26.4418 24.3253 26.4263 22.7389 26.4266C21.1847 26.4269 20.9856 26.4452 20.71 26.6133ZM35.7648 27.6825C34.9039 27.99 34.3081 28.7533 34.2134 29.6702C34.142 30.3623 34.3249 30.9368 34.7822 31.4563C35.2815 32.0235 35.7553 32.234 36.5379 32.2367C37.7338 32.2407 38.6282 31.5056 38.8751 30.3159C39.2288 28.6128 37.4283 27.0884 35.7648 27.6825Z" fill="#DDDDDD"/>
</svg>
