<svg width="20" height="21" viewBox="0 0 20 21" fill="none" xmlns="http://www.w3.org/2000/svg">
<path fill-rule="evenodd" clip-rule="evenodd" d="M10 20.5C15.5228 20.5 20 16.0228 20 10.5C20 4.97715 15.5228 0.5 10 0.5C4.47715 0.5 0 4.97715 0 10.5C0 16.0228 4.47715 20.5 10 20.5ZM10.9969 17.3033C14.3214 16.8204 16.875 13.9584 16.875 10.5C16.875 7.0416 14.3214 4.17963 10.9969 3.69674C10.7004 3.65368 10.5521 3.63215 10.3988 3.69165C10.2758 3.73941 10.1459 3.85182 10.0809 3.96672C10 4.10986 10 4.28158 10 4.625V16.375C10 16.7184 10 16.8901 10.0809 17.0333C10.1459 17.1482 10.2758 17.2606 10.3988 17.3084C10.5521 17.3679 10.7004 17.3463 10.9969 17.3033Z" fill="white"/>
</svg>
