<svg width="46" height="46" viewBox="0 0 46 46" fill="none" xmlns="http://www.w3.org/2000/svg">
<path fill-rule="evenodd" clip-rule="evenodd" d="M18.9676 1.15515C18.6831 1.43959 18.5534 1.699 18.3067 2.47731L17.9998 3.44576L17.6638 3.38893C17.479 3.35773 16.8956 3.30475 16.3673 3.27128L15.4067 3.21034L15.1672 2.68543C14.8803 2.05665 14.2803 1.40687 13.7654 1.16734C13.2784 0.940745 12.7625 0.937651 12.5613 1.15993C12.3411 1.4034 12.2389 2.07146 12.322 2.725C12.3612 3.03334 12.4229 3.58458 12.459 3.95002L12.5247 4.61443L12.2192 4.83202C11.8684 5.08179 11.6291 5.57405 11.4667 6.37938C11.4044 6.68876 11.2947 7.05626 11.2229 7.19602C11.0416 7.54946 10.4162 7.8906 9.55563 8.10566C8.67805 8.32496 8.46852 8.48876 8.46852 8.95535C8.46852 9.60399 8.74525 10.1877 9.32077 10.7527C10.0705 11.4888 10.9269 11.8985 11.8086 11.943C12.6021 11.9832 12.9805 11.8769 13.8063 11.3818C14.5987 10.9068 15.0978 10.885 15.52 11.307L15.807 11.594L15.7299 12.3618C15.6875 12.7839 15.65 13.4985 15.6467 13.9497C15.6432 14.4009 15.633 14.77 15.624 14.77C15.5741 14.7699 12.9261 15.5883 11.8435 15.9384C10.2425 16.4561 6.22807 17.7373 5.60913 17.928C4.52746 18.2613 4.05877 18.7614 4.0643 19.5765C4.0676 20.0563 4.38166 20.6423 4.73455 20.8275C5.36163 21.1565 5.68666 21.0773 11.1496 19.2653C13.9804 18.3263 16.336 17.553 16.3842 17.5469C16.4324 17.5407 16.6471 18.0208 16.8612 18.6138C17.0754 19.2067 17.4017 20.007 17.5864 20.392L17.9223 21.0921L17.6538 22.3608C17.1865 24.5688 17.0935 25.6928 17.0935 29.1316C17.0935 31.8717 17.1124 32.2866 17.2464 32.4778C17.5857 32.9622 18.5223 33.0994 19.2117 32.7658C19.9101 32.4276 19.9285 32.3129 19.8946 28.5044L19.8653 25.2231L20.2128 24.6138C20.404 24.2786 20.5974 23.9478 20.6426 23.8785C20.7078 23.7783 20.8861 23.8303 21.5107 24.1312C23.3957 25.0394 26.6406 25.1622 29.1269 24.4193C29.4803 24.3138 29.7813 24.2404 29.7958 24.2565C29.8402 24.3059 29.9286 26.0691 29.9963 28.2565L30.0609 30.3435L30.43 30.6594C31.0864 31.2213 32.0179 31.1725 32.5667 30.5475C32.8418 30.2341 32.8435 30.2251 32.8435 29.0544C32.8435 27.5296 32.5874 22.6695 32.4687 21.9419C32.4182 21.6325 32.2288 21.0829 32.0477 20.7206C31.8666 20.3583 31.7185 20.0309 31.7185 19.993C31.7185 19.9551 31.9277 19.5903 32.1834 19.1824C32.4391 18.7744 32.7962 18.0156 32.977 17.4963C33.5671 15.801 33.7577 13.506 33.3749 12.7075C32.915 11.748 31.7125 11.7148 31.0252 12.6424C30.8579 12.8683 30.8217 13.0938 30.7696 14.2362C30.7058 15.6333 30.5283 16.416 30.0747 17.3013C29.7344 17.965 29.6041 18.1089 29.455 17.9851C29.2165 17.7873 28.2992 17.4684 27.4997 17.3056L26.7029 17.1434L25.8845 15.652C25.4344 14.8318 25.0652 14.1056 25.0642 14.0383C25.0631 13.971 25.2681 13.5913 25.5198 13.1945C27.32 10.3563 27.6662 9.73432 27.8189 9.06258C28.0299 8.13511 28.4277 4.94555 28.4999 3.60313C28.5509 2.65431 28.5368 2.46465 28.3994 2.25503C27.8813 1.46425 26.6425 1.4365 26.0964 2.20346C25.8256 2.58381 25.6268 3.61663 25.0719 7.52863L24.9089 8.67802L24.1852 9.73179C23.0774 11.3449 23.2549 11.2192 22.7647 10.7381C22.3729 10.3535 22.3435 10.2908 22.3435 9.83855C22.3435 9.57129 22.217 8.85232 22.0625 8.24096C21.8392 7.35755 21.7814 6.92735 21.7809 6.14499C21.7793 3.64843 21.0311 1.48206 19.981 0.933528C19.5806 0.724368 19.3473 0.775368 18.9676 1.15515ZM14.4885 6.62679C14.2058 6.80773 13.906 7.22782 13.906 7.44279C13.906 7.65108 14.2366 7.62811 14.6596 7.39029C15.0876 7.14973 15.1379 7.14185 15.5179 7.25602C16.4526 7.53682 16.6872 7.47549 16.3934 7.02699C16.0062 6.43608 15.0876 6.24305 14.4885 6.62679ZM14.1403 12.0839C13.2851 12.5534 12.7393 12.7078 11.944 12.7053C11.183 12.7029 10.4755 12.479 9.87299 12.05L9.5633 11.8295L9.6263 12.2919C9.72033 12.9815 10.229 13.669 10.8817 13.9883C11.5581 14.3193 12.5516 14.3325 13.3717 14.0216C14.4057 13.6296 15.231 12.6181 15.0575 11.9553C14.9903 11.6982 14.7924 11.7259 14.1403 12.0839ZM41.984 22.8428C40.1847 23.1529 38.2798 23.5893 36.0779 24.1955C35.2529 24.4227 34.3782 24.6568 34.1342 24.7156L33.6903 24.8227L33.7405 25.773C33.904 28.8701 33.9388 30.0018 33.8785 30.2678C33.721 30.963 33.3018 31.4553 32.5331 31.8474C31.3497 32.451 29.7548 31.9053 29.1488 30.6892C28.9157 30.2214 28.906 30.1372 28.906 28.5798C28.906 27.4398 28.8746 26.9575 28.8004 26.9575C28.7044 26.9575 25.1487 28.3668 22.1091 29.6096L20.8904 30.1079L20.8424 31.3218C20.7887 32.6857 20.7016 32.9383 20.1189 33.421C19.3517 34.0566 18.0942 34.1503 17.1119 33.6448C16.4922 33.3259 16.2624 33.039 16.12 32.4068L16.0128 31.9312L14.7017 32.4948C12.6404 33.3806 8.28316 35.5737 6.68725 36.5285C4.23577 37.9953 3.01732 38.8798 2.08169 39.8715C0.17407 41.8938 0.763943 43.3578 3.64036 43.7397C4.51949 43.8563 7.05222 43.855 8.32786 43.7371C12.7396 43.3296 18.5768 42.0336 22.9529 40.4898C29.2726 38.2602 34.3059 35.6775 38.656 32.4323C39.9413 31.4733 41.9017 29.5139 42.8429 28.2471C44.3004 26.2854 45.401 24.1736 45.4044 23.3315C45.4079 22.4681 44.7243 22.3704 41.984 22.8428ZM41.8544 30.9029C41.3012 31.485 41.0227 31.842 41.1044 31.8648C42.8064 32.3371 43.5667 32.7105 44.5751 33.5688C45.0547 33.977 45.341 34.1592 45.4426 34.1204C45.5257 34.0885 45.5934 34.0119 45.5934 33.95C45.5934 33.6267 45.1541 32.6167 44.7491 32.0099C44.2786 31.304 43.007 29.9497 42.8317 29.9673C42.7781 29.9726 42.338 30.3936 41.8544 30.9029ZM2.74338 31.0664C2.24688 31.3813 1.62869 32.0616 1.29166 32.664C1.0255 33.1398 0.652193 34.1724 0.721382 34.2416C0.759066 34.2793 2.04832 33.4264 3.02547 32.7174C3.77433 32.174 4.17252 32.2902 4.62475 33.1843C5.0258 33.9771 5.17572 34.0578 5.97449 33.9106C6.68155 33.7803 7.5458 33.77 7.99975 33.8865C8.85736 34.1063 8.78913 34.1273 9.1586 33.5288C9.34563 33.2258 9.65313 32.8423 9.84183 32.6765C10.1308 32.4228 10.2368 32.3835 10.5122 32.4283C10.6922 32.4574 10.9907 32.5818 11.1757 32.7045L11.5121 32.9279L11.9596 32.703C12.3704 32.4968 12.3981 32.4618 12.2983 32.2751C12.1019 31.9081 11.2404 31.059 10.9324 30.9288C10.1459 30.5963 9.2621 30.9566 8.6036 31.8783L8.41049 32.1484L8.01569 31.9905C7.51833 31.7914 6.55049 31.7857 5.98302 31.9784L5.55346 32.1241L5.12305 31.6455C4.33002 30.7635 3.52863 30.5685 2.74338 31.0664ZM39.2942 33.2768C39.1039 33.3448 38.6609 33.6124 38.3099 33.8716C37.4457 34.5097 35.2802 35.919 34.4564 36.3794C34.0873 36.5856 33.7844 36.7773 33.7832 36.8052C33.7786 36.9128 34.9697 37.5404 35.2892 37.5987C35.7719 37.6869 36.1597 37.4921 37.0709 36.7038C38.4674 35.4957 39.2717 35.092 40.2966 35.0848C41.5354 35.0759 43.0134 35.8725 45.0209 37.6308C45.5746 38.1158 45.5934 38.1241 45.5934 37.8856C45.5934 37.4688 45.2261 36.5209 44.8499 35.9667C44.2169 35.0344 43.196 34.102 42.3372 33.6709C41.3439 33.1724 40.0544 33.0054 39.2942 33.2768ZM3.10985 34.8301C2.16607 35.1153 0.961476 36.6256 0.72166 37.8247L0.659882 38.1334L1.10294 37.7952C1.88707 37.1967 2.85297 36.6834 3.28743 36.6345C3.51427 36.6089 3.86283 36.6417 4.06199 36.7074C4.39619 36.8176 4.45507 36.8085 4.82905 36.5868C5.67252 36.0869 5.65936 36.1165 5.23413 35.6706C4.45469 34.8534 3.83905 34.6098 3.10985 34.8301ZM38.7626 37.2206C37.9374 37.4878 37.0222 38.077 36.14 38.9092C35.784 39.2451 35.4639 39.52 35.4287 39.52C35.3937 39.52 35.0613 39.2336 34.6902 38.8834C34.319 38.5334 33.7259 38.0413 33.3723 37.7898C32.7383 37.3391 32.7258 37.3349 32.4817 37.4898C32.3455 37.5763 31.7579 37.8891 31.1758 38.1851L30.1175 38.7231L30.7117 38.776C31.6313 38.8578 32.4857 39.321 33.6664 40.378C34.3832 41.0196 35.1331 41.4866 35.4488 41.4879C35.794 41.4893 36.3068 41.1693 37.1091 40.4519C38.5331 39.1785 39.1715 38.8593 40.3063 38.8533C41.1324 38.849 41.7372 39.0871 42.4353 39.6918C42.8026 40.0101 42.9556 40.0825 43.2616 40.0825C43.7981 40.0825 43.9636 39.959 44.1406 39.4254C44.2901 38.9757 44.2889 38.9412 44.1204 38.675C43.8701 38.2797 42.6213 37.497 41.8017 37.2218C40.8584 36.9052 39.7383 36.9048 38.7626 37.2206ZM28.0293 39.5532L27.1057 39.9393L27.4527 40.0113C27.7528 40.0737 27.8459 40.047 28.1419 39.8136C28.3301 39.6652 28.6318 39.4542 28.8122 39.3447C29.2818 39.0599 29.0823 39.113 28.0293 39.5532ZM29.4216 40.5892C28.3739 40.848 27.3921 41.4555 26.2532 42.5496L25.6159 43.1616L25.0344 42.6258C24.7145 42.3314 24.2484 41.9191 23.9986 41.7098L23.5442 41.3292L22.7329 41.5921C22.2867 41.7367 21.6052 41.9504 21.2185 42.067L20.5154 42.2787L20.9975 42.3413C21.9013 42.4578 22.5806 42.862 24.1443 44.2133C25.3989 45.2971 25.8742 45.28 27.1882 44.1027C29.8258 41.739 31.4016 41.7412 33.9101 44.1117C34.7339 44.8904 34.8601 44.9577 35.4965 44.9577C36.0736 44.9577 36.1468 44.9131 37.2401 43.903C39.2608 42.0357 40.8603 41.8501 42.635 43.2777C43.4514 43.9347 43.6297 44.011 44.1299 43.9197C44.63 43.828 44.9373 43.4748 44.9373 42.9906C44.9373 42.3623 44.6073 42.0867 42.629 41.0608C41.6493 40.5526 40.8208 40.4001 39.7925 40.5385C38.4412 40.7204 37.5814 41.1702 36.2462 42.394C35.8611 42.7467 35.5101 43.0356 35.4663 43.0356C35.4227 43.0356 35.0918 42.7694 34.7312 42.4441C33.8942 41.6894 33.4679 41.3825 32.7595 41.025C31.7087 40.4945 30.4632 40.332 29.4216 40.5892ZM18.4529 42.8586C18.0404 42.9828 16.9025 43.2554 15.9243 43.4637C14.9462 43.672 14.1307 43.858 14.1122 43.8764C14.0938 43.8948 14.3609 44.1426 14.7058 44.4271C15.4217 45.0177 15.8488 45.1467 16.355 44.9251C16.5291 44.8493 17.1354 44.3778 17.7023 43.8781C18.2692 43.3788 18.8492 42.91 18.9914 42.8363C19.1335 42.763 19.2497 42.6828 19.2497 42.658C19.2497 42.6336 19.2392 42.6181 19.2263 42.6233C19.2134 42.6284 18.8654 42.7347 18.4529 42.8586ZM2.8435 44.383C2.8435 44.5501 3.30916 44.875 3.6218 44.926C3.99757 44.9868 4.43725 44.9054 4.43725 44.7751C4.43725 44.728 4.19472 44.6641 3.89819 44.6333C3.60166 44.6024 3.24316 44.5171 3.10132 44.4434C2.95947 44.3701 2.8435 44.3427 2.8435 44.383ZM6.89836 44.7781C6.63869 44.869 7.21057 44.9731 7.58455 44.9033C8.10466 44.8056 8.07175 44.6624 7.53655 44.6946C7.27216 44.71 6.98502 44.7481 6.89836 44.7781Z" fill="#DDDDDD"/>
</svg>
