<svg width="40" height="39" viewBox="0 0 40 39" fill="none" xmlns="http://www.w3.org/2000/svg">
<path fill-rule="evenodd" clip-rule="evenodd" d="M17.003 0.1874C16.1134 0.323298 13.8369 0.879147 13.3771 1.07266C13.1314 1.17614 13.2476 1.19682 14.4485 1.26409C16.8074 1.39628 17.7599 1.74092 18.861 2.8604C19.5907 3.60242 19.9821 4.30563 20.315 5.47259C20.6136 6.5193 20.5953 8.06937 20.269 9.37362C20.1412 9.88434 20.0438 10.3039 20.0524 10.306C20.0612 10.3082 20.5281 10.4665 21.0901 10.6579C21.6521 10.8492 22.1537 11.0149 22.2048 11.026C22.2559 11.037 23.0501 9.54122 23.9697 7.70197C26.5384 2.56485 27.0927 1.40528 27.0144 1.33449C26.8965 1.22778 25.2401 0.707422 24.3566 0.499601C23.9053 0.393339 23.05 0.2462 22.4559 0.172444C21.1098 0.00552115 18.14 0.0136022 17.003 0.1874ZM29.4255 2.57619C29.3797 2.63657 28.9757 3.45919 28.5278 4.40436C28.0798 5.34953 27.0277 7.47028 26.1899 9.11718C25.3519 10.7641 24.6664 12.1463 24.6664 12.1889C24.6664 12.2314 25.0113 12.406 25.4328 12.5767C26.2658 12.9142 27.316 13.4542 28.0717 13.9336C28.6279 14.2865 28.541 14.3376 29.2706 13.229C29.8981 12.2752 31.7612 10.4264 32.7479 9.77843C33.6111 9.21145 34.5787 8.70574 35.3024 8.44344C35.5579 8.35082 35.8036 8.24313 35.8484 8.20424C36.0267 8.04928 34.1616 5.92293 32.8175 4.74879C32.1622 4.17641 30.9263 3.29728 30.0776 2.79985C29.6614 2.55602 29.4864 2.49602 29.4255 2.57619ZM8.96791 3.58264C6.58536 5.299 4.88072 7.16981 3.44241 9.64662C2.84456 10.6761 2.094 12.2814 2.094 12.5303C2.094 12.6337 2.21507 12.6229 2.72103 12.4744C3.06592 12.3732 4.64385 11.9598 6.22764 11.5558C10.7441 10.4038 13.8451 9.88489 16.2137 9.88489H17.3375L17.4729 9.5611C17.7284 8.9494 17.8321 8.25736 17.8347 7.14463C17.8372 6.11606 17.8173 5.98684 17.5777 5.47259C17.2756 4.82412 16.8753 4.37519 16.3527 4.09845C16.0124 3.91827 15.7471 3.89356 13.1933 3.80464L10.4054 3.70769L10.0815 3.36072L9.75749 3.01378L8.96791 3.58264ZM36.4052 10.8017C35.517 11.1537 34.3874 11.7689 33.8009 12.2201C32.7894 12.998 31.5833 14.3682 30.9757 15.4297L30.7529 15.8191L30.9376 16.0515C33.2436 18.9537 34.5016 21.7068 36.2809 27.7449C36.5056 28.5074 36.7288 29.1034 36.7833 29.0866C36.9855 29.0245 38.1472 26.5079 38.596 25.1601C39.2967 23.0545 39.4644 21.9729 39.4733 19.4991C39.481 17.3634 39.4211 16.7826 39.0075 14.9939C38.5943 13.2087 37.5348 10.6169 37.1949 10.5604C37.1247 10.5487 36.7693 10.6573 36.4052 10.8017ZM15.1451 12.4533C14.9919 12.4712 14.4694 12.531 13.984 12.5862C12.6575 12.7371 9.27752 13.3703 7.80681 13.7433C4.91779 14.476 1.36094 15.5103 1.2096 15.6616C1.13333 15.7379 0.979144 17.3264 0.924535 18.5992C0.841645 20.5287 1.13214 23.544 1.42948 23.8414C1.65501 24.0669 5.44431 22.4923 7.06368 21.5001C9.86849 19.7817 13.3807 16.3821 15.4562 13.3768C15.7704 12.9216 16.0276 12.514 16.0276 12.4711C16.0276 12.3947 15.7037 12.3881 15.1451 12.4533ZM18.7863 12.8806C18.7173 12.9956 18.4987 13.3614 18.3003 13.6934C17.2072 15.5228 15.8433 17.2215 13.8922 19.1835C11.6471 21.4412 10.4281 22.4208 8.18028 23.7736C6.76686 24.6243 5.84976 25.0611 3.78926 25.865C2.95908 26.1889 2.27978 26.4927 2.27978 26.5402C2.27978 26.5877 2.48956 27.0614 2.74591 27.5929C3.67975 29.529 5.13338 31.5107 6.79577 33.1138C7.93416 34.2115 9.82586 35.6231 9.92858 35.4514C9.951 35.414 10.122 34.8608 10.3085 34.2222C11.244 31.0208 12.0716 29.2981 14.6825 25.1181C16.4991 22.2095 17.4524 20.5438 19.2534 17.1304C20.444 14.8741 21.1366 13.4987 21.1366 13.3911C21.1366 13.2964 19.2616 12.6716 18.9776 12.6716C18.9412 12.6716 18.8551 12.7656 18.7863 12.8806ZM23.3577 14.6904C23.2367 15.0088 21.7129 18.0503 20.8356 19.7244C19.8204 21.6619 18.576 23.8035 16.8373 26.6052C14.2306 30.8059 13.307 32.8769 12.6034 36.0994L12.4268 36.9082L13.0428 37.1408C16.1732 38.3225 19.9204 38.6863 23.2266 38.1298C24.3703 37.9372 26.695 37.338 26.8344 37.1997C26.8773 37.1572 26.7424 36.6684 26.5347 36.1136C25.0827 32.2352 24.7592 27.6963 25.599 22.9825C25.9654 20.9257 26.7226 18.2953 27.396 16.7398L27.545 16.3956L27.0115 16.0874C26.3569 15.7095 23.6908 14.4365 23.5536 14.4365C23.499 14.4365 23.4108 14.5508 23.3577 14.6904ZM29.3671 18.9185C29.0378 19.8141 28.5721 21.5246 28.3489 22.6574C27.9083 24.8937 27.8709 25.3242 27.8767 28.0914C27.882 30.5851 27.8972 30.8144 28.1366 32.0393C28.4016 33.3945 28.87 34.9318 29.2399 35.6596L29.4558 36.0842L30.259 35.6054C31.4741 34.881 32.5992 34.0046 33.6406 32.9712C34.7399 31.8805 34.9818 31.5542 34.7842 31.4291C34.7115 31.3832 34.6208 31.3346 34.5826 31.3209C34.5443 31.3074 34.3082 30.5229 34.0578 29.5777C32.9297 25.3197 31.4851 21.5734 30.0728 19.2436C29.8328 18.8477 29.6085 18.5237 29.5743 18.5237C29.5401 18.5237 29.4469 18.7013 29.3671 18.9185Z" fill="#DDDDDD"/>
</svg>
