<svg width="32" height="40" viewBox="0 0 32 40" fill="none" xmlns="http://www.w3.org/2000/svg">
<path fill-rule="evenodd" clip-rule="evenodd" d="M7.7029 0.378171C7.0144 0.564899 6.36353 0.863014 5.86917 1.21826C4.26032 2.37398 2.85893 4.31228 2.04962 6.50104C1.71859 7.3962 1.71323 7.4337 1.70809 8.86376C1.70359 10.145 1.72759 10.3821 1.91123 10.8688C2.3569 12.0493 3.35415 13.1628 4.46903 13.725C4.8559 13.9202 5.26673 14.1045 5.38185 14.1345C5.67006 14.2099 5.78106 14.5627 5.78106 15.4035V16.1184L6.60182 16.9207C8.27235 18.5537 9.5887 19.794 9.96276 20.0874L10.3474 20.3891L10.4074 19.6187C10.4404 19.1948 10.468 18.4684 10.4687 18.0044C10.4695 17.5403 10.5121 16.7939 10.5635 16.3455L10.6569 15.5305L9.99996 14.4018C9.63867 13.7811 9.23209 13.0469 9.09632 12.7701L8.84967 12.267L9.26959 11.5732C10.1799 10.0693 10.8419 8.60648 11.0827 7.5672C11.378 6.29173 11.4429 6.14498 11.7108 6.14498C11.8291 6.14498 12.1947 6.30326 12.5232 6.49654C13.4438 7.03843 14.1606 8.10446 14.4535 9.36707L14.5981 9.99073L14.2319 10.482C12.9041 12.2629 12.2641 15.3412 12.2002 20.2544C12.1696 22.605 12.1955 23.2438 12.3899 24.9388C12.4911 25.8213 13.0436 26.4729 13.9121 26.7344C14.4696 26.9021 17.914 26.9157 18.4594 26.7523C18.664 26.691 19.0379 26.4551 19.2904 26.2281C20.0152 25.5765 20.1066 25.1145 20.1878 21.6947C20.256 18.8165 20.1187 16.9008 19.6573 14.2942C19.4068 12.879 18.7663 11.2683 18.119 10.4265L17.7708 9.97376L18.0575 9.08331C18.2152 8.59354 18.4505 8.01146 18.5803 7.78984C18.9485 7.16173 19.7254 6.4839 20.3416 6.25337C20.6387 6.1422 20.8993 6.05126 20.9208 6.05126C20.979 6.05126 21.1396 6.6477 21.347 7.63431C21.5301 8.50517 21.9737 9.46281 23.2358 11.7117L23.5977 12.3566L23.3263 12.7898C23.177 13.0281 22.76 13.7505 22.3997 14.395L21.7445 15.5669L21.8169 16.4106C21.8567 16.8747 21.9192 17.9294 21.9556 18.7544C21.9922 19.5794 22.037 20.2708 22.0553 20.2908C22.1197 20.3617 22.7565 19.815 24.0817 18.5511C24.8187 17.8482 25.6854 17.0399 26.0076 16.7549L26.5935 16.2367V15.4004C26.5935 14.5903 26.6024 14.5557 26.8773 14.2989C27.0334 14.153 27.286 14.0063 27.4389 13.9728C27.8131 13.8906 28.9972 13.0989 29.4186 12.6492C29.8699 12.1674 30.2135 11.6007 30.5127 10.844C30.7373 10.2762 30.758 10.111 30.7545 8.9106C30.7512 7.74081 30.723 7.51393 30.4958 6.82346C30.1137 5.66228 29.7577 4.92578 29.0908 3.9162C28.0507 2.34193 26.7929 1.22254 25.3486 0.585899C24.7328 0.314399 24.5851 0.287399 23.7125 0.286559C22.7535 0.285621 22.7533 0.285715 22.4469 0.59237C22.156 0.883456 22.1407 0.933514 22.1454 1.57676C22.151 2.35076 22.5334 3.80481 23.1478 5.38834C23.5579 6.44546 23.8936 7.63234 23.8174 7.75573C23.7415 7.87851 23.4652 7.84478 23.2367 7.68467C22.9996 7.5186 22.3066 6.2004 21.8606 5.06687C21.5708 4.33046 21.5591 4.31631 21.2164 4.28751C19.3825 4.13348 17.3033 5.86101 16.468 8.23298C16.3731 8.50251 16.2667 8.7231 16.2315 8.7231C16.1964 8.7231 16.0688 8.46017 15.948 8.13878C15.0763 5.81996 13.3851 4.4106 11.2821 4.2504L10.9238 4.2231L10.6172 4.9731C10.2362 5.90507 9.46562 7.44904 9.2719 7.66843C9.09285 7.8711 8.8429 7.87937 8.6839 7.68784C8.52996 7.50231 8.61962 7.1409 9.20582 5.58248C9.76523 4.09534 10.1516 2.81048 10.2911 1.9731C10.4243 1.17334 10.28 0.72467 9.79446 0.428699C9.42267 0.201899 8.44026 0.178276 7.7029 0.378171ZM2.43134 16.5234C2.08609 16.5902 1.81853 17.0127 1.8712 17.4079C1.93532 17.889 2.65965 19.4502 3.30353 20.4949C3.93117 21.5136 5.23223 22.8793 6.10917 23.44C7.3777 24.2511 9.00267 24.7964 10.1621 24.8L10.5587 24.8013L10.5157 24.4028C10.4921 24.1837 10.4482 23.7657 10.4181 23.4739L10.3634 22.9435L9.73673 22.8344C7.1752 22.3883 5.49409 20.9617 4.0624 18.0192C3.32843 16.5108 3.18379 16.3781 2.43134 16.5234ZM29.258 16.5869C29.0947 16.6601 28.9045 16.8534 28.8202 17.0322C28.7382 17.2059 28.5193 17.682 28.3337 18.0903C27.3309 20.2958 25.5708 22.0134 23.7342 22.5787C23.4763 22.658 22.9862 22.7724 22.645 22.8329L22.0247 22.9428L21.9654 23.5108C21.9328 23.8232 21.906 24.2475 21.906 24.4539V24.829L22.6326 24.7728C24.7988 24.6049 27.1025 23.226 28.6933 21.145C29.432 20.1787 30.4573 18.0974 30.5095 17.4583C30.5436 17.039 30.5185 16.9447 30.3246 16.7636C30.0343 16.4928 29.621 16.4242 29.258 16.5869ZM0.965202 21.71C0.821117 21.8813 0.718559 22.1178 0.718559 22.2791C0.718559 22.751 1.44293 23.7762 2.62159 24.972C3.54623 25.9101 4.12035 26.3631 4.99103 26.8417C6.48837 27.6648 7.8412 27.9888 9.78126 27.9888C10.4768 27.9888 11.0194 28.0255 10.9915 28.0707C10.891 28.2333 9.9364 28.6243 9.16167 28.82C8.18132 29.0678 7.48729 29.0705 6.35273 28.831C5.26982 28.6024 5.01473 28.5992 4.75429 28.81C4.47615 29.0352 4.3909 29.6844 4.59803 30.0004C4.80756 30.3203 5.16246 30.4873 6.13026 30.7214C7.28753 31.0012 8.63817 30.9886 9.7654 30.6875L10.6092 30.4622L10.6843 29.952C10.8218 29.02 11.0309 28.2287 11.2691 27.7402L11.5045 27.2572L11.1506 26.7449L10.7967 26.2324L9.67167 26.1849C6.80843 26.0639 4.69617 24.8789 2.6794 22.2622C2.08746 21.4942 2.05973 21.4724 1.64153 21.4451C1.25882 21.42 1.18476 21.449 0.965202 21.71ZM30.3347 21.5407C30.2525 21.6066 29.8489 22.0825 29.4379 22.5981C27.5092 25.0178 25.6021 26.012 22.5623 26.1824L21.5779 26.2376L21.2198 26.7843C20.8317 27.3769 20.8243 27.6126 21.1866 27.8409C21.6929 28.1598 23.6907 28.0893 25.281 27.6966C27.6035 27.123 29.7283 25.5058 31.4083 23.0329C31.8043 22.4499 31.8388 22.1028 31.5358 21.7503C31.2862 21.4603 30.587 21.3382 30.3347 21.5407ZM21.3848 28.3713C21.424 28.4961 21.5313 28.9919 21.6233 29.4731C21.7152 29.9543 21.831 30.3888 21.8807 30.4384C21.9304 30.4881 22.3678 30.6105 22.8526 30.7106C24.3768 31.0251 26.1061 30.9215 27.3547 30.441C27.9925 30.1955 28.2211 29.31 27.7576 28.8804C27.4317 28.5783 27.2244 28.5619 26.4529 28.7775C25.9648 28.914 25.5085 28.9604 24.6717 28.9585C23.6293 28.9561 23.4778 28.9317 22.6092 28.6269C22.0935 28.446 21.591 28.2634 21.4925 28.2213C21.3358 28.1542 21.3223 28.173 21.3848 28.3713ZM13.0749 28.5278C12.1992 29.4638 11.8832 31.8533 12.3961 33.6606C12.5278 34.1247 12.6437 34.5828 12.6537 34.6785C12.6674 34.8119 12.3829 35.0093 11.4374 35.5222C10.0872 36.2549 9.81229 36.4586 9.81229 36.727C9.81229 37.173 10.1307 38.2314 10.3766 38.6025C10.8778 39.3597 11.5183 39.5834 13.5178 39.7013C14.2985 39.7476 14.9352 39.8286 15.0108 39.8911C15.2503 40.09 19.8356 39.7677 20.8081 39.4836C21.8301 39.1853 22.4939 38.2488 22.5081 37.0857L22.5154 36.4795L22.062 36.181C21.8127 36.0168 21.1674 35.6568 20.6282 35.3809C19.7984 34.9564 19.6553 34.8506 19.6962 34.6919C19.7228 34.5888 19.849 34.1247 19.9767 33.6606C20.3989 32.1261 20.2583 30.2613 19.6313 29.08C19.4644 28.7655 19.2154 28.4459 19.0779 28.3695C18.8546 28.2457 18.773 28.2481 18.3144 28.3927C17.613 28.6138 14.7267 28.6293 14.1121 28.4152C13.5343 28.214 13.3498 28.234 13.0749 28.5278ZM14.9754 30.017C14.7315 30.3269 14.7328 30.3726 14.992 30.6219C15.3234 30.9408 16.187 31.3014 16.7262 31.3461C17.5291 31.4128 17.7286 31.0683 17.2216 30.4909C17.0115 30.2517 16.7763 30.1247 16.2607 29.9718C15.3814 29.7111 15.2112 29.7171 14.9754 30.017ZM15.0112 32.6251C14.8846 32.7517 14.781 32.913 14.781 32.9838C14.781 33.202 15.1856 33.507 15.8173 33.7651C16.7465 34.1448 17.3098 34.0853 17.4384 33.5941C17.5154 33.2992 16.9979 32.8605 16.2727 32.6059C15.508 32.3375 15.2955 32.3407 15.0112 32.6251Z" fill="#DDDDDD"/>
</svg>
