<svg width="44" height="30" viewBox="0 0 44 30" fill="none" xmlns="http://www.w3.org/2000/svg">
<path fill-rule="evenodd" clip-rule="evenodd" d="M20.9894 0.559953C18.1984 0.90867 16.5862 1.41344 14.7 2.52932C11.2357 4.57886 8.89659 7.93137 8.01784 12.1068C7.78237 13.2259 7.67638 15.2025 7.84127 15.4012C7.97652 15.5641 8.61391 15.8691 10.0179 16.4426C15.9391 18.8613 23.4822 20.2079 31.161 20.2173C35.7386 20.2229 37.2536 19.9694 39.196 18.8731C42.0881 17.2408 43.4223 15.5759 43.4223 13.5995C43.4223 11.7409 41.9705 9.92575 39.2622 8.39907C38.4857 7.96139 36.8336 7.24094 36.7646 7.31003C36.7493 7.32528 36.8839 7.69005 37.0636 8.1208C37.2432 8.55144 37.4948 9.24467 37.6226 9.66128L37.8549 10.4187L38.5079 10.8133C39.2989 11.2912 40.4894 12.3826 40.7263 12.847C41.0222 13.4271 41.0511 13.8174 40.8316 14.2708C40.6005 14.7482 39.6816 15.676 38.9638 16.1568C38.4476 16.5026 37.0979 17.2144 36.6076 17.3993C36.3438 17.4989 36.3419 17.4972 36.3938 17.1961C36.5266 16.425 36.5571 14.7529 36.4577 13.6898C36.0983 9.84613 34.3081 6.32584 31.5337 4.00742C29.9437 2.67858 28.4233 1.81341 26.7022 1.25819C24.8279 0.653587 22.5088 0.370096 20.9894 0.559953ZM6.63787 7.59438C3.90436 8.76499 2.00689 10.3136 1.22057 12.0157C1.00599 12.4801 0.931862 12.7929 0.899258 13.371C0.820674 14.7657 1.36297 15.9498 2.62331 17.1349C3.87995 18.3165 5.15515 19.0606 7.84394 20.1813L8.72491 20.5485L8.95863 21.0907C9.3079 21.9009 10.0458 23.2242 10.4646 23.7911C12.5101 26.5599 15.7765 28.6508 19.1316 29.3391C19.899 29.4965 21.9333 29.6954 22.0483 29.6242C22.0842 29.6021 22.4937 29.5756 22.9586 29.5654C27.3451 29.469 31.8764 26.8414 34.2339 23.0271C34.4852 22.6205 34.6908 22.2642 34.6908 22.2353C34.6908 22.2065 33.4473 22.1989 31.9273 22.2186C27.3313 22.2782 23.6151 22.0067 20.0605 21.3516C14.1155 20.2559 8.82402 18.4334 5.715 16.4105C3.67166 15.0811 2.95697 14.0075 3.43908 12.9916C3.75544 12.325 4.62668 11.5222 5.8164 10.8014C6.3289 10.4909 6.34691 10.4657 6.54488 9.7863C6.65643 9.40314 6.91113 8.70507 7.11076 8.23512C7.31046 7.76521 7.47387 7.35759 7.47387 7.32944C7.47387 7.24744 7.37446 7.27891 6.63787 7.59438Z" fill="#DDDDDD"/>
</svg>
