<svg width="30" height="30" viewBox="0 0 30 30" fill="none" xmlns="http://www.w3.org/2000/svg">
<path fill-rule="evenodd" clip-rule="evenodd" d="M14.6597 29.376C22.7559 29.376 29.3194 22.8126 29.3194 14.7163C29.3194 6.62 22.7559 0.0566406 14.6597 0.0566406C6.56336 0.0566406 0 6.62 0 14.7163C0 22.8126 6.56336 29.376 14.6597 29.376ZM16.1211 24.6898C20.9947 23.9818 24.7382 19.7862 24.7382 14.7163C24.7382 9.64642 20.9947 5.45086 16.1211 4.74296C15.6865 4.67984 15.469 4.64827 15.2443 4.7355C15.064 4.80551 14.8736 4.9703 14.7783 5.13874C14.6597 5.34858 14.6597 5.60032 14.6597 6.10376V23.3289C14.6597 23.8323 14.6597 24.084 14.7783 24.2939C14.8736 24.4624 15.064 24.6272 15.2443 24.6972C15.469 24.7845 15.6865 24.7528 16.1211 24.6898Z" fill="white"/>
</svg>
