<svg width="40" height="42" viewBox="0 0 40 42" fill="none" xmlns="http://www.w3.org/2000/svg">
<path fill-rule="evenodd" clip-rule="evenodd" d="M31.1092 0.991328C30.7517 1.15867 30.2477 1.62032 28.9861 2.93569C28.0763 3.88437 27.3005 4.69099 27.2624 4.7281C27.2242 4.76522 27.4623 5.05532 27.7916 5.37263C28.1209 5.68999 29.213 6.75919 30.2185 7.74863C32.0126 9.51413 35.5447 12.8813 35.8662 13.1327C36.0131 13.2475 36.1907 13.0967 37.6321 11.6324C39.4923 9.74269 39.7156 9.39096 39.7091 8.36119C39.7023 7.23049 39.6367 7.14246 36.4735 4.02079C34.3697 1.9444 33.5197 1.16646 33.1717 0.998267C32.5385 0.692455 31.7531 0.689734 31.1092 0.991328ZM22.851 9.23599C20.707 11.407 19.4578 12.69 16.2588 16.007C15.4645 16.8306 13.6493 18.6856 12.2248 20.1294C9.88948 22.4963 4.57284 27.9579 2.73358 29.8794C2.16105 30.4775 2.00295 30.7053 1.95302 31.0044C1.91861 31.2106 1.76878 32.0332 1.62019 32.8325C0.802523 37.2298 0.406052 39.5437 0.406052 39.9183C0.406052 40.7193 0.871223 41.3484 1.61064 41.5473C2.04002 41.663 2.03072 41.6656 6.49978 40.2088C8.33025 39.6123 10.0178 39.0762 10.2498 39.0175C10.8997 38.8533 11.3697 38.5356 12.0725 37.7857C13.004 36.7916 15.3228 34.4118 18.497 31.1919C20.6588 28.9991 26.6425 22.8482 27.1703 22.2763C27.2227 22.2196 28.8263 20.5809 30.7342 18.6345C32.6419 16.6882 34.2151 15.044 34.23 14.9806C34.2524 14.8858 33.5782 14.231 32.317 13.1228C32.1195 12.9491 32.1116 12.9555 30.4425 14.6638C25.8817 19.3316 24.8065 20.4348 23.4258 21.8637C20.1637 25.2395 18.2386 27.2043 15.1405 30.3198L11.9057 33.5727L11.6554 33.3945C11.0679 32.9762 11.0487 33.0224 12.3693 31.6782C13.0373 30.9982 14.702 29.3028 16.0685 27.9106C17.4351 26.5184 19.6934 24.2192 21.0871 22.8012C22.4808 21.3833 24.2716 19.5481 25.0667 18.7231C25.8618 17.8981 27.5007 16.2236 28.7088 15.0022L30.9053 12.7812L30.9463 12.2834L30.9874 11.7856L30.1107 10.9222C29.6287 10.4474 29.1498 9.99516 29.0467 9.91737C28.7408 9.68672 28.2305 9.73613 27.8185 10.0364C27.6174 10.1829 26.2732 11.5224 24.8312 13.013C23.3893 14.5035 20.3296 17.6426 18.0318 19.9887C15.7341 22.3348 12.5719 25.5742 11.0048 27.1876L8.15548 30.1208L7.79531 29.769C7.59714 29.5755 7.44611 29.3872 7.45961 29.3504C7.48108 29.2921 9.41475 27.3029 15.7321 20.8407C16.6098 19.9429 19.2695 17.2429 21.6427 14.8407C24.0159 12.4386 26.273 10.1415 26.6584 9.73635L27.3592 8.99955L26.5623 8.24954C26.124 7.83713 25.6141 7.37955 25.4291 7.23285L25.0929 6.96602L22.851 9.23599ZM3.77981 32.3183C3.66431 32.4575 3.31622 34.11 2.93102 36.3478L2.73739 37.4725L3.04828 37.7368C3.78281 38.3616 4.03987 38.609 4.13239 38.7805C4.22784 38.9574 4.26581 38.9519 5.38695 38.602C7.34569 37.9906 8.95764 37.4434 9.03778 37.3627C9.07978 37.3203 9.07022 36.9575 9.01639 36.5564C8.94178 35.9995 8.94572 35.7947 9.03319 35.6892C9.17269 35.5211 9.16931 35.5211 8.70289 35.6891C7.65645 36.0662 6.78105 35.6404 6.78105 34.7544C6.78105 34.1578 6.58455 33.9575 5.99972 33.9575C5.24295 33.9575 4.82025 33.6037 4.81528 32.966C4.81314 32.6904 4.75181 32.5271 4.59534 32.38C4.34355 32.1435 3.94961 32.1137 3.77981 32.3183Z" fill="#DDDDDD"/>
</svg>
