<svg width="41" height="43" viewBox="0 0 41 43" fill="none" xmlns="http://www.w3.org/2000/svg">
<path fill-rule="evenodd" clip-rule="evenodd" d="M19.3124 0.407345C18.482 0.646164 17.82 1.03807 17.1932 1.66192C16.3328 2.51837 15.9509 3.32243 15.3128 5.62009C15.0299 6.63889 14.6694 7.91151 14.5118 8.44796C14.3542 8.98441 14.019 10.1548 13.767 11.0489C13.515 11.943 13.0985 13.4059 12.8415 14.3C12.3459 16.024 12.3058 16.2476 12.4904 16.2561C13.0291 16.2808 28.6795 16.2325 28.7058 16.206C28.7249 16.1869 28.5479 15.489 28.3124 14.6552C28.0771 13.8212 27.7374 12.6164 27.5577 11.9778C27.0264 10.09 26.7701 9.20476 26.4415 8.12285C26.2708 7.56084 25.9349 6.39044 25.6951 5.52191C24.97 2.89571 24.557 2.11746 23.427 1.24791C22.5606 0.581236 21.9025 0.35263 20.7344 0.312408C20.0872 0.290208 19.6088 0.322068 19.3124 0.407345ZM10.1432 23.4262C9.88158 24.4402 9.21276 26.7728 8.40535 29.4877C7.91917 31.1226 7.36629 33.0074 7.1766 33.6762C6.79137 35.0347 6.64125 35.3033 6.10417 35.5945C5.77694 35.7719 5.58313 35.7965 4.47859 35.8011C3.33121 35.8058 3.1811 35.8265 2.71365 36.0455C1.8222 36.4629 1.04136 37.4176 0.771417 38.4202C0.27213 40.2746 1.36553 42.2604 3.20042 42.8315C3.7257 42.995 4.32169 43.0026 15.7034 42.9916C22.2767 42.9852 29.9956 42.9538 32.8567 42.922C37.9604 42.8651 38.0657 42.86 38.4349 42.6625C39.5267 42.0778 40.3896 40.8242 40.4945 39.6699C40.6321 38.1503 39.6541 36.5715 38.2061 35.9757C37.7587 35.7917 37.5228 35.7619 36.4989 35.76C34.7278 35.7567 34.4334 35.545 33.9778 33.9464C33.8468 33.4866 33.6401 32.776 33.5185 32.3673C33.0328 30.7343 32.3485 28.4018 32.0194 27.2583C31.8284 26.5941 31.4779 25.3819 31.2407 24.5645L30.8095 23.0782L20.5273 23.0547L10.2452 23.031L10.1432 23.4262Z" fill="#DDDDDD"/>
</svg>
