<svg width="42" height="25" viewBox="0 0 42 25" fill="none" xmlns="http://www.w3.org/2000/svg">
<path fill-rule="evenodd" clip-rule="evenodd" d="M22.9637 0.822373C22.5692 1.07904 22.131 1.43904 20.2192 3.07713C19.7713 3.46087 19.4368 3.80605 19.4759 3.84419C19.5149 3.88237 20.1337 4.16819 20.8511 4.47946C22.2626 5.09185 22.6524 5.37813 22.7448 5.87052C22.8703 6.53952 22.2497 7.30122 21.579 7.30122C21.2145 7.30122 20.4512 7.01249 18.8495 6.26879L17.5898 5.68379L17.2843 5.84832C17.1162 5.93887 16.8903 6.10696 16.7823 6.2219L16.586 6.43087L16.8008 6.56446C16.9189 6.63787 17.6484 6.98634 18.4218 7.33863C19.1953 7.69104 19.9019 8.06352 19.9922 8.16629C20.234 8.4419 20.2157 9.26287 19.9605 9.58735C19.7128 9.90213 19.3075 10.1138 18.9519 10.1138C18.8 10.1138 18.1335 9.87676 17.4708 9.58704C16.4156 9.1259 14.8558 8.45219 14.718 8.3981C14.6469 8.37016 13.7812 9.10987 13.7812 9.19846C13.7812 9.24037 13.8973 9.31807 14.039 9.37113C15.0164 9.73713 16.887 10.6302 17.0584 10.8125C17.373 11.1473 17.408 11.684 17.1408 12.0739C16.8144 12.5501 16.4788 12.7618 16.0596 12.7561C15.7119 12.7513 14.2982 12.1893 12.582 11.3738C11.8133 11.0085 11.8403 11.0043 11.0156 11.6185C10.0734 12.3202 9.44118 12.521 7.49996 12.7342C5.31009 12.9748 4.31568 13.1919 3.42112 13.6248C1.95588 14.3336 0.9342 15.5747 0.5232 17.145C0.308229 17.9661 0.378823 19.8385 0.655011 20.6438C1.27357 22.4465 2.73832 23.7501 5.10935 24.608L5.85935 24.8794L22.2187 24.9073C34.7768 24.9288 38.7064 24.9088 39.1304 24.8213C40.0817 24.6253 40.8574 23.8522 41.0477 22.9109C41.1043 22.6322 41.1463 20.3738 41.1519 17.345C41.1604 12.5014 41.1523 12.2512 40.9946 12.3104C40.7601 12.398 37.2843 14.2874 34.125 16.0444C30.9985 17.7831 27.402 19.61 25.5468 20.4017C22.7478 21.5963 21.2873 21.8724 19.9512 21.4597C18.9068 21.1371 18.3045 20.6358 17.8092 19.6762C17.535 19.1453 17.4495 17.8808 17.6298 17.0226C17.8517 15.9655 18.571 14.4365 19.3064 13.459C19.6763 12.9673 20.6484 11.895 20.7243 11.895C20.747 11.895 20.7656 12.5383 20.7656 13.3247C20.7656 14.611 20.7858 14.792 20.9679 15.1294C21.438 16.0006 22.2309 16.4266 23.3906 16.431C23.8031 16.4326 24.4781 16.3591 24.8906 16.2676C25.7748 16.0715 28.2134 15.339 29.0156 15.0286C29.325 14.9089 30.1054 14.6166 30.75 14.3793C31.3945 14.1418 33.1031 13.4683 34.5468 12.8824C35.9906 12.2965 37.6148 11.6418 38.1562 11.4274C38.6976 11.213 39.5999 10.8204 40.1614 10.5549L41.1819 10.0722L41.127 8.42896C41.0966 7.5251 41.0109 6.5114 40.9359 6.17622C40.4726 4.09996 39.4131 2.2061 38.4375 1.70896C37.4932 1.22784 36.496 1.54619 36.0438 2.4731C35.801 2.97076 35.7103 3.36787 35.4777 4.95187C35.3955 5.51129 35.234 6.15805 35.1065 6.43902C34.5511 7.66216 33.3546 8.23593 31.3593 8.23593C29.2276 8.23593 27.7501 7.47822 27.0326 6.01696C26.8193 5.5826 26.7656 5.34599 26.7656 4.84169V4.21032L27.2493 3.7871C27.8578 3.2549 28.1673 2.65096 28.0976 2.13187C28.0234 1.5791 27.6381 1.06143 27.0964 0.787016C26.6526 0.562102 26.5563 0.551216 25.0058 0.551216H23.3805L22.9637 0.822373Z" fill="#DDDDDD"/>
</svg>
