<svg width="44" height="45" viewBox="0 0 44 45" fill="none" xmlns="http://www.w3.org/2000/svg">
<path fill-rule="evenodd" clip-rule="evenodd" d="M1.68759 0.344018C0.639103 0.762145 0.281542 2.3153 0.281353 6.45241C0.281169 11.1139 1.0111 16.2217 2.00961 18.5466L2.34656 19.3312L2.02744 20.0271C1.74197 20.6496 1.0547 22.6594 0.90123 23.3203C0.847886 23.5501 0.870853 23.5782 1.14779 23.6212C1.31571 23.6474 2.36019 23.7996 3.46877 23.9595C7.34803 24.5191 10.0985 25.1627 10.4766 25.5994C10.7569 25.9231 10.7492 26.3419 10.4574 26.6336C10.1699 26.9211 9.76989 26.9321 8.75503 26.6803C7.32553 26.3255 4.90971 25.851 3.75 25.697C3.10547 25.6115 2.29586 25.5016 1.95077 25.4526C1.60577 25.4038 1.13195 25.3637 0.897853 25.3637C0.513197 25.3637 0.465574 25.3885 0.402013 25.6216C0.324386 25.9062 0.300197 28.9782 0.375013 29.0475C0.400792 29.0714 0.738292 29.0362 1.12501 28.9694C2.75871 28.6871 6.11769 28.3782 7.90611 28.3456L9.48403 28.3169L9.71083 28.5799C10.1499 29.0894 9.91989 29.7091 9.23439 29.8639C9.02811 29.9105 8.35311 29.9749 7.73439 30.0071C6.4293 30.075 3.1935 30.3822 2.2728 30.5257C1.92506 30.5799 1.4613 30.6484 1.2422 30.678C0.958698 30.7164 0.844136 30.7756 0.845169 30.8837C0.849198 31.3009 1.9275 33.3111 2.72859 34.395C2.76039 34.4379 3.26683 34.2006 3.85406 33.8677C5.36606 33.0106 6.57669 32.4161 8.27833 31.6954C9.89627 31.0099 10.1448 30.9803 10.4989 31.4305C10.9708 32.0304 10.6663 32.394 9.11661 33.0809C7.50874 33.7936 3.9375 35.6755 3.9375 35.81C3.9375 35.8246 4.39106 36.2337 4.94533 36.7192C9.14122 40.3941 13.5936 42.6949 18.2344 43.5863C21.071 44.131 24.0606 44.0127 27.1076 43.2353C30.9799 42.247 35.3391 39.8114 38.8082 36.6976C39.3261 36.2327 39.75 35.8351 39.75 35.814C39.75 35.6473 35.2776 33.2851 34.094 32.8268C33.4274 32.5686 33.0937 32.2553 33.0937 31.8874C33.0937 31.5295 33.4405 31.1524 33.7686 31.1536C34.5512 31.1569 37.9514 32.6907 40.1957 34.0531C40.8484 34.4494 40.899 34.4648 41.061 34.3182C41.4934 33.9269 43.1109 30.9287 42.9617 30.7956C42.7907 30.6435 39.2542 30.2143 36.8437 30.053C34.3277 29.8847 34.2951 29.8801 34.0603 29.6595C33.7711 29.3878 33.7632 28.8193 34.0446 28.5379C34.2421 28.3404 34.2841 28.3379 36.4587 28.393C38.775 28.4518 41.9944 28.7759 43.134 29.0651C43.3761 29.1265 43.3779 29.123 43.4353 28.4406C43.4961 27.7195 43.4224 25.9534 43.3149 25.5522C43.2433 25.2848 43.3436 25.2871 41.4844 25.51C39.9034 25.6996 38.0601 26.0165 35.7421 26.4974C33.8829 26.883 33.7325 26.901 33.4921 26.7666C33.0928 26.5434 32.9634 26.1955 33.1307 25.7951C33.2564 25.4941 33.3302 25.4489 34.0477 25.2334C35.6877 24.7408 39.0998 24.0414 40.7344 23.8628C42.3364 23.6877 42.8383 23.6191 42.8897 23.5678C42.9583 23.499 42.2554 21.3276 41.817 20.2533L41.4544 19.3662L41.7776 18.5446C42.0673 17.8077 42.4629 16.3939 42.7419 15.0981C42.8696 14.505 43.1811 12.3729 43.311 11.2075C43.4709 9.76972 43.5394 4.94225 43.4186 3.64205C43.1576 0.837424 42.7149 0.16224 41.1999 0.259457C40.383 0.311863 39.9583 0.525518 37.7344 2.00377C35.0511 3.78725 32.9026 5.50569 30.75 7.59014C30.157 8.16425 29.5449 8.74732 29.3895 8.88567L29.1072 9.13719L27.4271 8.72049C23.0466 7.63402 19.7534 7.68464 15.7437 8.90028L14.7461 9.20272L13.5371 8.04211C12.3623 6.91432 10.125 4.97499 9.20083 4.28328C8.94994 4.09552 8.34853 3.64569 7.8645 3.28365C6.20859 2.0453 3.9483 0.614678 3.2688 0.374957C2.83071 0.220363 2.03653 0.204895 1.68759 0.344018ZM3.31277 4.60441C3.2253 4.83241 3.35053 7.99767 3.51836 9.80122C3.76341 12.4348 4.31027 15.7075 4.50506 15.7075C4.55122 15.7075 4.89 15.4438 5.25789 15.1216C6.27283 14.2326 7.39714 13.3102 7.94327 12.9184C8.26783 12.6856 8.43411 12.4994 8.43544 12.3672C8.43909 12.0097 6.96921 9.22488 6.05541 7.85799C4.89591 6.12361 3.81056 4.70688 3.50027 4.52264C3.41786 4.47369 3.35186 4.50249 3.31277 4.60441ZM40.1589 4.67722C39.3057 5.39675 37.1233 8.66041 35.9889 10.9129C35.5826 11.7195 35.2502 12.4045 35.2501 12.4351C35.2501 12.4658 35.5339 12.6979 35.8809 12.9508C36.2278 13.2037 37.0151 13.8325 37.6304 14.3481C39.4444 15.8684 39.2576 15.7394 39.3621 15.5443C39.4941 15.2976 39.9223 12.8061 40.1314 11.069C40.326 9.45155 40.5321 5.88417 40.4833 4.98232L40.4533 4.42891L40.1589 4.67722ZM12.4959 18.846C11.9385 19.0277 11.3533 19.4545 10.7555 20.1151C9.39386 21.6197 9.29074 22.9634 10.5469 22.8349C10.7964 22.8094 11.0879 22.529 11.5776 21.8434C12.0605 21.1674 12.6523 20.6137 13.0854 20.4328C13.6129 20.2124 14.3454 20.2645 14.919 20.5631C15.3096 20.7664 15.5214 20.9693 15.8679 21.472C16.3729 22.2047 16.4455 22.2665 16.8047 22.2686C17.3711 22.2717 17.6139 21.5921 17.2902 20.9097C17.0346 20.3712 16.0205 19.4879 15.2175 19.1044C14.5678 18.7942 14.3936 18.7522 13.6875 18.7358C13.2149 18.7249 12.7299 18.7696 12.4959 18.846ZM28.9683 18.8821C27.9538 19.2797 26.8321 20.1911 26.5026 20.8853C26.2689 21.3778 26.2962 21.856 26.5739 22.1336C26.9619 22.5216 27.184 22.4209 27.7788 21.5874C28.6566 20.3571 29.7219 19.9941 30.8315 20.5471C31.1623 20.7119 31.479 20.982 31.7935 21.3674C32.9556 22.7914 32.9976 22.8325 33.2926 22.8325C33.6789 22.8325 33.9081 22.6926 34.0864 22.3478C34.2336 22.063 34.2288 22.0395 33.8764 21.3437C33.387 20.3776 32.5126 19.4587 31.7026 19.0596C31.1576 18.7911 30.9813 18.7521 30.2368 18.7355C29.6141 18.7215 29.2791 18.7604 28.9683 18.8821ZM19.6625 23.9642C18.8898 24.1496 18.4688 24.6694 18.4688 25.4379C18.4688 25.8167 18.5199 25.9726 18.7235 26.2145C18.999 26.542 19.5231 26.81 20.0934 26.915C20.5961 27.0076 20.6808 27.2334 20.5533 28.1418C20.2239 30.4884 18.343 31.8874 16.1424 31.4224C15.7653 31.3427 14.9834 31.0861 14.4049 30.8519C13.2204 30.3725 12.8489 30.328 12.5661 30.6315C11.9714 31.2698 12.757 32.0427 14.6601 32.6913L15.7031 33.0469L15.9388 33.7287C16.5849 35.5979 17.8164 36.8599 19.6875 37.571C20.4469 37.8596 20.5461 37.8739 21.7969 37.875C22.9812 37.876 23.1789 37.8516 23.8215 37.6254C25.769 36.9399 27.1157 35.649 27.811 33.8012L28.1109 33.0044L28.7995 32.8118C29.7951 32.5334 30.9386 31.933 31.1953 31.5539C31.4749 31.1409 31.4614 30.9357 31.133 30.6073C30.9028 30.3771 30.8104 30.3434 30.547 30.3936C30.3751 30.4264 30.0684 30.5364 29.8656 30.6379C29.2407 30.9509 28.3188 31.2712 27.6201 31.4183C25.4304 31.8793 23.536 30.4847 23.1527 28.1294C23.0004 27.1936 23.083 27.0295 23.7789 26.8858C24.8181 26.6711 25.3922 26.0345 25.2716 25.2307C25.2014 24.7624 24.7534 24.176 24.3311 23.9996C23.9859 23.8553 20.2349 23.827 19.6625 23.9642ZM21.5321 30.6337C20.7417 31.8514 19.4949 32.7392 18.2418 32.977C17.7349 33.0732 17.625 33.1264 17.625 33.2753C17.625 33.5948 18.3816 34.7608 18.7146 34.9543C18.798 35.0027 18.9675 34.9298 19.1951 34.7476C19.7288 34.3205 20.3043 34.1088 21.2344 33.9978C22.5366 33.8423 23.5281 34.0441 24.4219 34.6469L24.9844 35.0262L25.3194 34.6547C25.5036 34.4505 25.7901 34.0285 25.9562 33.717L26.2581 33.1506L25.9962 33.0928C24.2317 32.7029 23.3005 32.1032 22.2561 30.6845L21.8539 30.1381L21.5321 30.6337ZM4.98947 40.0424C3.68203 41.2356 3.36292 42.6614 4.19203 43.6051C4.68789 44.1696 4.5858 44.161 10.1719 44.122C13.4621 44.0989 13.9616 44.0779 13.6406 43.9746C12.149 43.495 8.23174 41.3132 6.17833 39.8184L5.6535 39.4363L4.98947 40.0424ZM37.1288 40.1423C36.5895 40.5239 35.7879 41.0539 35.3476 41.3202C34.3511 41.9226 30.9711 43.6459 30.2945 43.897L29.7921 44.083L33.1539 44.1443C37.1721 44.218 38.7841 44.158 39.1755 43.9197C39.9034 43.477 40.1841 42.6109 39.9356 41.5751C39.8371 41.1638 39.7039 40.9654 39.1089 40.3425C38.7186 39.9341 38.3342 39.5659 38.2544 39.5242C38.1514 39.4704 37.8255 39.6494 37.1288 40.1423Z" fill="#DDDDDD"/>
</svg>
