<svg width="43" height="42" viewBox="0 0 43 42" fill="none" xmlns="http://www.w3.org/2000/svg">
<path fill-rule="evenodd" clip-rule="evenodd" d="M18.333 0.915116C17.9846 1.06671 17.6784 1.45768 17.2732 2.2679C17.1071 2.59997 16.5025 3.72859 15.9298 4.77593C15.357 5.82327 14.7091 7.01328 14.49 7.42043C13.2857 9.65817 13.0891 9.96489 12.8233 10.0197C12.6922 10.0467 12.0737 10.1307 11.4487 10.2063C10.7302 10.2934 10.1785 10.4123 9.94792 10.5298C9.42688 10.7957 9.3597 10.9419 7.10833 16.7124C6.76947 17.5809 6.45494 18.3751 6.40933 18.4773C6.29612 18.7308 3.0163 27.0102 2.08564 29.392C1.89596 29.8773 1.53862 30.8072 1.29152 31.4584L0.842214 32.6424L0.814994 36.1493L0.787872 39.6565L1.0201 40.1113C1.16027 40.386 1.39649 40.6621 1.6159 40.8073L1.97956 41.0481L21.5991 41.0791C35.6461 41.1007 41.3264 41.0803 41.5977 41.0077C42.0436 40.8871 42.4856 40.5393 42.7081 40.133C42.8491 39.8752 42.8708 39.4293 42.8971 36.211L42.9268 32.5801L42.605 31.7523C42.4275 31.2971 42.1574 30.5693 42.0041 30.1351C41.8508 29.7008 41.5089 28.7603 41.244 28.045C40.6775 26.5147 39.4097 23.1052 38.9648 21.9143C38.7929 21.4545 38.4233 20.4512 38.1434 19.6849C37.8634 18.9185 37.3649 17.56 37.0358 16.6659C36.7066 15.7718 36.2354 14.476 35.9885 13.7863C35.3823 12.0926 34.9618 11.7022 33.9214 11.8676C33.5393 11.9282 33.367 12.095 32.4171 13.3228C32.085 13.752 31.6252 14.3407 31.3953 14.6311C31.1654 14.9214 30.4165 15.895 29.7312 16.7948C29.0459 17.6947 28.4577 18.4309 28.4242 18.4309C28.3907 18.4309 27.7629 17.2082 27.0291 15.7138C25.8088 13.2285 25.2744 12.1221 24.0122 9.46691C23.7694 8.95603 23.3618 8.0991 23.1064 7.56264C22.8512 7.02619 22.5263 6.33649 22.3846 6.02994C20.3059 1.53276 20.1636 1.25742 19.7791 0.990618C19.4301 0.748486 18.7923 0.715109 18.333 0.915116ZM22.1218 22.4981C21.1095 24.1982 19.6868 26.5324 18.4579 28.5095C18.1348 29.0292 15.9297 32.6347 14.6663 34.7091C14.5337 34.9266 14.0199 35.7682 13.5244 36.5793C13.0289 37.3903 12.639 38.0692 12.6578 38.0881C12.6963 38.1265 38.377 38.1401 38.4144 38.1017C38.4275 38.0883 37.9163 37.1367 37.2784 35.9872C36.6403 34.8377 35.6559 33.0506 35.0908 32.0161C34.2534 30.483 34.027 30.1354 33.8672 30.1369C33.7594 30.1379 33.3899 30.1794 33.0462 30.2291C31.86 30.4007 29.811 30.6072 29.7387 30.5627C29.6989 30.538 29.4914 30.2248 29.2778 29.8665C29.0642 29.5083 28.5398 28.6803 28.1125 28.0264C27.6852 27.3725 26.8828 26.1268 26.3294 25.2583C25.0818 23.3005 23.5517 20.9456 23.3893 20.7332C23.2817 20.5925 23.1333 20.7991 22.1218 22.4981ZM9.70451 29.4151C9.40663 30.0411 8.31831 32.2573 7.28622 34.3403L5.40963 38.1275L7.23004 38.1024L9.05031 38.0772L10.8822 35.1512L12.7141 32.2251L12.4275 31.7142C12.1129 31.1536 10.307 28.2773 10.2696 28.2773C10.2568 28.2773 10.0025 28.7893 9.70451 29.4151Z" fill="#DDDDDD"/>
</svg>
