<svg width="14" height="42" viewBox="0 0 14 42" fill="none" xmlns="http://www.w3.org/2000/svg">
<path fill-rule="evenodd" clip-rule="evenodd" d="M9.13193 0.674372C7.0696 1.44088 4.88937 3.04429 3.91549 4.51061L3.57782 5.01902L3.55107 8.47267L3.52437 11.9263H7.13702H10.7497V6.31579C10.7497 0.999499 10.7407 0.697154 10.5782 0.550154C10.3366 0.331531 9.9697 0.363032 9.13193 0.674372ZM2.3122 18.4888V23.4575H7.14032H11.9684V18.4888V13.52H7.14032H2.3122V18.4888ZM0.537402 31.3091C0.540959 34.6994 0.575201 38.0889 0.61343 38.8415C0.678487 40.1236 0.699702 40.2363 0.949044 40.6306C1.0954 40.862 1.3552 41.147 1.52629 41.2644C2.20146 41.7269 2.2414 41.7303 7.26267 41.7346C11.7187 41.7384 12.0004 41.729 12.372 41.5589C12.8683 41.3317 13.2193 40.9653 13.4568 40.4261C13.6369 40.0177 13.6429 39.7715 13.6493 32.5747L13.6558 25.145H7.09334H0.53093L0.537402 31.3091Z" fill="#DDDDDD"/>
</svg>
