<svg width="45" height="46" viewBox="0 0 45 46" fill="none" xmlns="http://www.w3.org/2000/svg">
<path fill-rule="evenodd" clip-rule="evenodd" d="M20.2236 0.560964C19.5978 0.784181 19.2342 1.11146 18.7286 1.90665C18.4567 2.33415 18.1078 2.88287 17.9531 3.12615C17.7984 3.36935 17.4437 3.94766 17.1647 4.41129C16.8858 4.87496 16.3689 5.72152 16.0162 6.29246C15.6636 6.86341 15.375 7.35296 15.375 7.38044C15.375 7.40782 15.6671 7.45479 16.0242 7.48466C17.002 7.56669 17.6641 7.98549 17.9936 8.73052L18.177 9.14499H20.8012H23.4256L23.6894 8.65599C24.0602 7.96844 24.5471 7.65194 25.4298 7.52482C26.1062 7.42741 26.8893 7.51479 27.8203 7.79161C28.135 7.88516 28.0953 7.73199 27.4722 6.44769C26.7161 4.88958 26.6655 4.68969 26.9538 4.40135C27.3988 3.95641 27.6304 4.16996 28.2697 5.61502C28.5172 6.17435 28.7853 6.65726 28.8657 6.68799C28.9461 6.71885 29.4441 6.59161 29.9725 6.40535L30.9333 6.06661L31.527 6.78549C32.1148 7.49735 33.1103 8.72658 35.2935 11.4359C37.0136 13.5705 37.2709 13.8325 37.6478 13.8325C37.8808 13.8325 38.0043 13.7715 38.1156 13.6017C38.3534 13.2388 38.3834 13.3025 35.5347 8.11376C34.4951 6.22008 33.6251 4.59249 32.3777 2.20749C31.8817 1.25912 31.3804 0.762809 30.721 0.566964C30.0573 0.369899 20.7739 0.364559 20.2236 0.560964ZM14.7486 8.59149C13.3259 8.75726 12.3724 9.23066 11.2864 10.3107C10.3628 11.2291 9.85075 12.1923 9.59845 13.4856L9.43761 14.3106L8.72661 14.9926C6.04328 17.5669 4.46408 19.0396 4.36114 19.0638C3.95087 19.1601 3.78917 18.265 4.13708 17.8229C4.37395 17.5216 4.30319 17.4154 3.78814 17.2993C3.01581 17.1251 1.95895 17.5904 1.39834 18.3514C0.903253 19.0234 0.481658 20.017 0.279252 20.989C0.0953139 21.8718 0.0883796 22.1656 0.115564 27.8796C0.143408 33.7255 0.148285 33.8635 0.353408 34.5981C0.98172 36.8483 2.32787 38.1532 3.69437 37.8367C4.24714 37.7086 4.45161 37.4254 4.85811 36.2243C5.49917 34.3306 6.10825 33.6896 7.62102 33.3161C8.07042 33.2051 8.45661 33.1328 8.47911 33.1554C8.5017 33.178 8.42031 33.6595 8.29834 34.2254C7.95955 35.7971 6.9687 40.1734 6.65378 41.4888C5.71217 45.4227 5.72987 45.3216 5.95242 45.484C6.21437 45.6756 35.6883 45.6781 35.9503 45.487C36.1443 45.3447 36.2247 45.7446 34.6854 39.1919C34.3221 37.645 33.8801 35.7466 33.7034 34.9731C33.5267 34.1997 33.3544 33.472 33.3207 33.3559C33.2488 33.1086 33.2679 33.1063 33.9199 33.2798C34.5046 33.4354 34.6563 33.5316 35.3437 34.1819C36.1053 34.9024 36.7092 35.1568 37.6497 35.1529C39.0842 35.147 39.894 34.5004 41.1699 32.3419C42.597 29.9275 43.7053 27.9511 43.8943 27.4827C44.1309 26.8966 44.2243 25.3837 44.0734 24.5768C43.827 23.2588 42.9729 21.9938 40.2677 18.9419C39.3726 17.9319 39.1456 17.7331 38.6111 17.4905C38.1396 17.2765 37.9264 17.2604 37.5064 17.4068L37.2037 17.5124L37.5393 17.8561C37.9149 18.2407 37.9735 18.5893 37.7035 18.8336C37.4136 19.096 37.1968 19.0085 36.5143 18.3539C36.1527 18.007 35.0241 16.9464 34.0065 15.9971C32.3641 14.4649 32.1562 14.238 32.1562 13.9777C32.1562 13.5442 31.9039 12.6438 31.6033 12.0044C30.8349 10.3703 29.397 9.19269 27.598 8.72405C26.9017 8.54276 25.4137 8.53766 24.9888 8.71514C24.3591 8.97832 24.3036 9.48566 24.8479 10.0035L25.2272 10.3643L25.8606 10.3054C27.8087 10.1243 29.7979 11.5282 30.1863 13.3579C30.3319 14.0445 30.2677 15.1985 30.0501 15.8013L29.8979 16.2231L30.6287 16.9212C31.3594 17.6194 35.7469 21.8467 36.7791 22.8472L37.3263 23.3776L37.1823 23.6562C37.0404 23.9304 36.8629 24.0513 36.6021 24.0513C36.5293 24.0513 35.8967 23.478 35.1963 22.7772C34.4961 22.0765 33.8994 21.5269 33.8706 21.5557C33.8416 21.5846 33.7834 22.5216 33.7412 23.638C33.6331 26.4961 33.2553 28.5105 32.3756 30.9184C32.1919 31.4212 31.9928 31.8325 31.9332 31.8325C31.7876 31.8325 31.125 31.3777 31.125 31.2778C31.125 31.2343 31.276 30.7822 31.4605 30.2733C32.1599 28.3451 32.7187 25.1558 32.7187 23.0934V22.1718L31.1484 22.1974L29.5781 22.2231L29.5525 23.955C29.5373 24.9779 29.4874 25.7263 29.4306 25.7831C29.3778 25.8361 29.0729 25.9005 28.7532 25.9263L28.1718 25.9731V27.8789V29.7845L27.9088 30.0117C27.6813 30.2081 27.5514 30.2388 26.9478 30.2388H26.25V31.6378V33.0368L25.9796 33.3072C25.8309 33.4559 25.4301 33.7594 25.089 33.9816L24.4687 34.3858V35.5864C24.4687 36.7283 24.4574 36.8004 24.2357 37.0639C24.1075 37.2162 23.7081 37.5158 23.3479 37.7298C22.5292 38.2161 22.2646 38.5599 22.0742 39.3844C21.9915 39.7425 21.8363 40.1293 21.7293 40.2439C21.3141 40.6885 20.3016 40.7644 19.794 40.3891C19.5611 40.217 19.4888 40.0498 19.2247 39.0731C19.0788 38.5339 18.6663 38.0889 17.8941 37.638C17.035 37.1361 16.9687 36.9905 16.9687 35.6034V34.49L16.1016 33.841L15.2343 33.1919L15.2086 31.7153L15.1827 30.2388L14.5054 30.2374C14.1329 30.2365 13.7817 30.2049 13.725 30.167C13.4529 29.9853 13.4062 29.6426 13.4062 27.8284V25.9681L13.0282 26.0043C12.5971 26.0453 12.1428 25.8885 12.0313 25.6598C11.9896 25.5743 11.9338 24.7661 11.9073 23.8638L11.8593 22.2231H10.4598H9.06034L9.08172 23.3481C9.1287 25.818 9.55534 28.2582 10.2813 30.2089C10.5843 31.0234 10.5943 31.0872 10.4656 31.3951C10.3008 31.7898 9.99664 31.9151 9.74867 31.6906C9.36745 31.3458 8.50002 28.3177 8.2047 26.3013C8.12537 25.7599 8.03322 24.4415 7.99975 23.3716C7.96628 22.3017 7.91584 21.4263 7.88755 21.4263C7.85931 21.4263 7.24045 22.0169 6.51231 22.7388C5.78425 23.4606 5.1237 24.0513 5.04437 24.0513C4.8267 24.0513 4.40622 23.6851 4.40622 23.4956C4.40622 23.4004 5.34334 22.4263 6.5859 21.2299C9.06514 18.8426 11.286 16.7109 11.6113 16.4061C11.8167 16.2136 11.8221 16.184 11.6888 15.9769C11.5187 15.7126 11.3433 14.8133 11.3448 14.2137C11.3479 13.0058 12.1146 11.6453 13.1743 10.9676C14.0042 10.4367 14.7284 10.2421 15.6781 10.2946L16.4968 10.34L16.8265 9.93764C17.2237 9.45288 17.2329 9.32735 16.8984 8.95402C16.5051 8.51516 16.0552 8.43926 14.7486 8.59149ZM17.6556 10.5393L17.4517 10.7981L18.0475 11.3309L18.6432 11.8638H20.7664H22.8896L23.4426 11.3715C23.7468 11.1009 23.9952 10.8372 23.9946 10.7856C23.9942 10.734 23.9146 10.5969 23.8177 10.4809C23.6421 10.2704 23.6373 10.27 20.7506 10.2751L17.8593 10.2804L17.6556 10.5393ZM14.8248 11.3978C13.8692 11.596 13.0319 12.2678 12.6291 13.1598C12.3492 13.7794 12.3463 14.9306 12.6231 15.5314C12.9092 16.1528 13.4358 16.6934 14.0474 16.9938C14.5108 17.2213 14.6852 17.254 15.4218 17.2511C16.1474 17.2484 16.3322 17.2132 16.7403 17.0006C17.6824 16.5098 18.2748 15.5841 18.3539 14.4794C18.4168 13.6005 18.2071 13.0281 17.5701 12.3401C16.8135 11.5229 15.8376 11.1879 14.8248 11.3978ZM25.5322 11.3934C24.655 11.5792 23.9119 12.1293 23.481 12.912C23.2339 13.3605 23.2066 13.4955 23.2083 14.2544C23.2106 15.2953 23.3961 15.753 24.0936 16.4397C24.696 17.0326 25.3537 17.3013 26.2031 17.3013C28.2533 17.3013 29.6906 15.396 29.1202 13.4341C28.9271 12.7698 28.2231 11.9713 27.5334 11.6343C26.9872 11.3673 26.1378 11.2651 25.5322 11.3934ZM15.0932 12.238C14.2401 12.4778 13.2187 13.5625 13.2187 14.2289C13.2187 14.593 13.4733 14.8638 13.8159 14.8638C14.1353 14.8638 14.3333 14.6973 14.8441 13.9991C14.9845 13.8072 15.2879 13.5204 15.5184 13.3618C15.9257 13.0815 16.0068 12.9037 15.8793 12.5711C15.7917 12.3431 15.3641 12.1619 15.0932 12.238ZM25.2937 12.475C24.9059 12.6892 24.2029 13.6078 24.1302 13.9955C24.0366 14.4946 24.2391 14.8089 24.6777 14.8456C25.0061 14.8732 25.0427 14.8452 25.5025 14.2129C25.7673 13.849 26.0178 13.5513 26.0593 13.5513C26.1008 13.5513 26.2051 13.4032 26.2909 13.2224C26.4239 12.9421 26.4288 12.8554 26.3244 12.6364C26.1776 12.3288 25.6954 12.2532 25.2937 12.475ZM19.3593 14.2548V15.2389H20.7667L22.1741 15.2388L22.173 14.2544L22.1718 13.2701L20.7656 13.2704L19.3593 13.2706V14.2548ZM18.7583 16.5846C18.4543 17.0766 17.7219 17.7106 17.139 17.9863C15.9531 18.5473 14.8624 18.5551 13.7163 18.0109L13.0312 17.6855V21.2434V24.8013H13.3064C13.6681 24.8013 14.0101 24.9363 14.2462 25.1725C14.4259 25.3522 14.4375 25.4765 14.4375 27.2388V29.1138H15.0289C15.6437 29.1138 15.8013 29.1847 16.0644 29.58C16.1901 29.7687 16.2187 30.0664 16.2187 31.1841V32.5565L16.9252 33.0976C17.3284 33.4065 17.7309 33.808 17.8627 34.0329C18.0706 34.3876 18.0937 34.5311 18.0937 35.4646V36.5021L18.5914 36.783C19.5381 37.3173 20.1374 38.1461 20.3841 39.2622C20.5092 39.8281 20.9777 39.4639 21.1379 38.6763C21.2752 38.001 21.7467 37.4628 22.8216 36.7544L23.3906 36.3794L23.4375 35.2544C23.4651 34.5934 23.5342 34.0421 23.6052 33.9177C23.74 33.6816 24.5434 33.0206 24.9531 32.8088L25.2187 32.6715V31.3114C25.2187 29.9384 25.3139 29.4319 25.6076 29.2424C25.6773 29.1974 26.0297 29.1395 26.3906 29.1138L27.0468 29.0669L27.0937 27.2388C27.1243 26.0457 27.1806 25.3408 27.2558 25.2095C27.3893 24.9765 27.829 24.8013 28.2796 24.8013H28.5937V21.2371V17.673L28.1266 17.9098C26.3507 18.8098 24.5939 18.4924 23.1328 17.0079L22.5 16.365V17.7706C22.5 19.0513 22.4833 19.1929 22.3125 19.3638C22.1028 19.5735 21.7519 19.6095 21.5812 19.4388C21.5029 19.3605 21.4687 18.8616 21.4687 17.7981V16.27H20.9531H20.4375V17.7679C20.4375 19.2609 20.4367 19.2661 20.2038 19.4188C19.8959 19.6205 19.521 19.5248 19.4029 19.2144C19.3532 19.0836 19.3125 18.3675 19.3125 17.6233C19.3125 16.3516 19.3016 16.27 19.1327 16.27C19.0296 16.27 18.8696 16.4045 18.7583 16.5846ZM18.1551 19.254C17.9334 19.4989 17.9631 19.9092 18.2433 20.4713C18.5176 21.0219 19.0599 21.5099 19.7418 21.8198C20.1128 21.9884 20.3602 22.0275 21.0062 22.0194C21.9314 22.0079 22.5228 21.7721 23.1171 21.1779C23.9633 20.3317 24.057 19.008 23.2641 19.1009C23.0664 19.1239 22.9878 19.218 22.8479 19.5981C22.6221 20.2119 22.2016 20.6358 21.6301 20.8256C20.5838 21.1731 19.2662 20.6191 19.0649 19.747C18.9208 19.1227 18.4867 18.8875 18.1551 19.254ZM25.7812 21.52C25.611 21.6903 25.5937 21.8325 25.5937 23.0669C25.5937 24.32 25.609 24.4415 25.7894 24.6219C25.933 24.7655 26.0513 24.8015 26.2347 24.7574C26.6744 24.6514 26.7187 24.495 26.7187 23.049C26.7187 21.8325 26.7013 21.6901 26.5312 21.52C26.4281 21.4169 26.2593 21.3325 26.1562 21.3325C26.0531 21.3325 25.8843 21.4169 25.7812 21.52ZM14.866 22.3235C14.7454 22.4442 14.7187 22.7216 14.7187 23.8541C14.7187 25.1788 14.7279 25.2459 14.9357 25.4412C15.2043 25.6935 15.3233 25.6966 15.5625 25.4575C15.7328 25.2871 15.75 25.145 15.75 23.9044C15.75 23.1424 15.7071 22.4588 15.6529 22.3576C15.5334 22.1343 15.0751 22.1146 14.866 22.3235ZM19.1629 23.0299C19.0041 23.2054 18.9843 23.3821 18.9843 24.6319C18.9843 25.995 18.9909 26.0419 19.2057 26.2158C19.4871 26.4438 19.6407 26.4418 19.875 26.2075C20.0462 26.0363 20.0625 25.895 20.0625 24.5814C20.0625 23.3068 20.043 23.1251 19.891 22.9876C19.6578 22.7765 19.3776 22.7928 19.1629 23.0299ZM21.6328 24.0588C21.4824 24.1463 21.4687 24.3844 21.4687 26.91C21.4687 29.6513 21.4698 29.6664 21.6771 29.8115C21.9525 30.0045 22.0868 29.9956 22.3125 29.77C22.4913 29.5911 22.5 29.4575 22.5 26.867C22.5 24.2783 22.4916 24.1471 22.3187 24.0545C22.0921 23.9333 21.8456 23.9348 21.6328 24.0588ZM23.5739 26.3439C23.3477 26.57 23.3437 26.6013 23.3437 28.1575C23.3437 29.5725 23.362 29.7574 23.5152 29.8961C23.7416 30.101 24.1203 30.0933 24.3136 29.8798C24.4452 29.7344 24.4686 29.4679 24.4673 28.122C24.4665 27.2495 24.4349 26.4892 24.397 26.4325C24.3273 26.3281 23.9669 26.1138 23.8612 26.1138C23.8297 26.1138 23.7004 26.2174 23.5739 26.3439ZM17.175 26.32C17.0959 26.399 17.0625 26.9271 17.0625 28.0959C17.0625 29.7086 17.0688 29.7638 17.2709 29.9053C17.5361 30.0911 17.7597 30.0906 17.9464 29.904C18.069 29.7814 18.0937 29.4837 18.0937 28.1294C18.0937 26.775 18.069 26.4774 17.9464 26.3548C17.7721 26.1805 17.3343 26.1607 17.175 26.32ZM19.2187 31.1476C18.8725 31.2713 18.8437 31.4516 18.8437 33.4953C18.8437 35.481 18.8455 35.4991 19.0678 35.7214C19.3264 35.98 19.6161 35.9506 19.831 35.6437C19.9416 35.4858 19.9687 35.056 19.9687 33.4591V31.4711L19.7217 31.2768C19.4617 31.0724 19.4428 31.0675 19.2187 31.1476ZM21.6239 31.3477C21.4896 31.496 21.4687 31.7909 21.4687 33.5363C21.4687 35.3714 21.4842 35.5674 21.6402 35.7086C21.868 35.9148 22.0844 35.9044 22.3125 35.6763C22.488 35.5008 22.5 35.3638 22.5 33.5409C22.5 31.9296 22.4748 31.557 22.354 31.3846C22.177 31.1319 21.8348 31.1145 21.6239 31.3477ZM13.6009 33.044C13.3848 33.2602 13.3487 33.387 13.2248 34.3638C13.0648 35.6249 12.9406 36.2082 12.6929 36.8615C12.1136 38.389 12.0637 38.7784 12.4173 39.01C12.8132 39.2694 13.0116 39.1133 13.4198 38.2219C14.2375 36.4365 14.3443 36.3325 15.3603 36.3325C16.1026 36.3325 16.4062 36.1598 16.4062 35.7376C16.4062 35.3515 16.0848 35.1641 15.3925 35.1465C14.5559 35.1251 14.4375 34.9825 14.4375 33.9963C14.4375 33.2335 14.3506 33.0201 13.9969 32.9153C13.8553 32.8733 13.7313 32.9136 13.6009 33.044ZM29.2633 38.787C29.2189 38.9065 29.1318 39.2198 29.0695 39.4831L28.9566 39.9618L28.4432 40.0849C27.4246 40.3293 27.4133 40.5689 28.3992 41.0233L29.0625 41.329V41.7253C29.0625 42.2903 29.161 42.7077 29.2944 42.7077C29.3575 42.7077 29.599 42.5149 29.8311 42.2796L30.2528 41.8518L30.8683 42.19C31.2068 42.376 31.5082 42.4887 31.5381 42.4407C31.5678 42.3923 31.4445 42.0284 31.2639 41.6321C31.0833 41.2358 30.9642 40.8621 30.9993 40.8018C31.0344 40.7413 31.2246 40.4962 31.4222 40.257C32.0256 39.5261 31.8828 39.3219 30.9387 39.5666C30.6172 39.6499 30.3373 39.701 30.3166 39.6803C30.2958 39.6596 30.1634 39.4147 30.0223 39.136C29.7288 38.5569 29.4042 38.4076 29.2633 38.787ZM16.2553 40.9756C16.1058 41.2038 16.1111 41.2303 16.3974 41.6909C16.6676 42.1253 16.6816 42.1836 16.5505 42.3284C16.357 42.5423 16.3683 42.8316 16.5777 43.021C16.7931 43.216 16.9553 43.2173 17.1666 43.0261C17.3184 42.889 17.3501 42.889 17.5463 43.0261C18.1495 43.4487 18.8214 42.7746 18.2829 42.2873C18.0987 42.1206 18.0994 42.1163 18.3767 41.8006C18.708 41.4232 18.7195 41.3133 18.4619 40.9858C18.2383 40.7015 17.8717 40.6608 17.5521 40.8847C17.3635 41.0168 17.3239 41.0168 17.1353 40.8847C16.815 40.6603 16.4363 40.6995 16.2553 40.9756Z" fill="#DDDDDD"/>
</svg>
