<svg width="35" height="41" viewBox="0 0 35 41" fill="none" xmlns="http://www.w3.org/2000/svg">
<path fill-rule="evenodd" clip-rule="evenodd" d="M18.0026 39.6039C18.1357 39.3232 18.4505 38.6605 18.7024 38.1308C20.1106 35.1685 20.5035 34.3517 21.8298 31.6298C22.303 30.6587 22.8981 29.4307 23.1523 28.901C23.9144 27.3127 24.6486 25.8035 27.4673 20.0324C27.9309 19.0833 28.8133 17.2594 29.4284 15.9793C30.0435 14.6991 30.7051 13.3537 30.8988 12.9893L31.2509 12.3269L31.0333 12.2144C30.7252 12.055 28.974 11.3556 27.9294 10.9746C25.9143 10.2398 23.4383 9.667 21.2278 9.42428C19.9914 9.28848 15.4372 9.2872 14.3255 9.42228C12.2831 9.67044 9.9768 10.1878 8.11406 10.8156C7.26974 11.1002 4.3817 12.2121 4.31588 12.278C4.30289 12.291 4.36565 12.4429 4.45538 12.6156C4.54511 12.7882 4.93807 13.5976 5.32861 14.4143C5.71916 15.2309 6.35498 16.5491 6.74157 17.3437C7.12808 18.1383 7.74216 19.4024 8.1062 20.1528C9.08764 22.1762 10.0442 24.1465 10.8338 25.7709C11.22 26.5655 11.7079 27.5767 11.9181 28.0182C12.1282 28.4596 12.6332 29.507 13.0405 30.3457C13.4477 31.1844 13.9173 32.1595 14.084 32.5127C14.2507 32.8658 14.8456 34.0938 15.4059 35.2415C15.9664 36.3892 16.6983 37.9241 17.0324 38.6525C17.3665 39.3809 17.6671 40.0077 17.7003 40.0451C17.7335 40.0824 17.8695 39.8841 18.0026 39.6039ZM16.1313 32.0124C16.5994 31.8952 16.9671 31.3367 17.0962 30.5463C17.2153 29.8171 18.1379 29.345 19.2348 29.4521C19.5142 29.4793 19.9858 29.5248 20.2825 29.553C20.9936 29.6208 21.25 29.5131 21.4729 29.0525C21.6093 28.7708 21.633 28.6197 21.5901 28.3074C21.4846 27.5403 21.0223 27.34 19.3164 27.3225C17.6929 27.3057 16.8135 27.5857 16.0121 28.3744C15.2811 29.0939 14.8141 30.2429 14.9094 31.0879C14.9543 31.4866 15.192 31.7929 15.587 31.9612C15.8568 32.0761 15.8713 32.0775 16.1313 32.0124ZM15.2291 22.3148C16.8352 21.9256 18.0174 20.4351 18.0174 18.7993C18.0174 17.7643 17.7179 17.0281 16.973 16.2317C16.4229 15.6436 15.8711 15.343 15.0137 15.1642C14.0204 14.9571 12.9013 15.2501 12.0897 15.9297C9.75658 17.883 10.6093 21.5485 13.5746 22.313C14.1642 22.465 14.6072 22.4655 15.2291 22.3148ZM24.0173 18.5938C24.8762 18.1936 25.3103 17.5861 25.3828 16.6833C25.4772 15.5073 24.5616 14.4509 23.3131 14.2954C22.4625 14.1894 21.5087 14.7435 21.1156 15.5719C20.9226 15.9787 20.8602 16.7303 20.9831 17.1691C21.1244 17.6739 21.5974 18.2521 22.0705 18.4986C22.6153 18.7823 23.5181 18.8264 24.0173 18.5938ZM32.4641 9.92493C33.6136 9.57396 34.5694 8.45524 34.7137 7.29172C34.9225 5.60822 33.7824 4.14316 31.9152 3.69534C31.5912 3.61763 30.8508 3.35757 30.2698 3.11744C25.4858 1.14005 19.8237 0.316571 14.6465 0.845303C10.912 1.22672 7.9273 1.96831 5.06945 3.22483C4.7187 3.37902 4.08925 3.59419 3.6706 3.70294C3.25198 3.81169 2.7312 3.99781 2.51319 4.11645C1.93419 4.43154 1.37256 5.02498 1.0683 5.64304C0.82999 6.1271 0.802091 6.25559 0.802006 6.86797C0.801751 8.13612 1.35922 9.06745 2.4523 9.62479C3.47904 10.1484 3.91638 10.1219 5.61737 9.43336C9.78193 7.74762 14.5041 6.93235 19.0352 7.11677C22.8806 7.27325 26.1244 7.98155 30.3702 9.5918C31.4594 10.0048 31.9479 10.0825 32.4641 9.92493Z" fill="#DDDDDD"/>
</svg>
