<svg width="20" height="123" viewBox="0 0 20 123" fill="none" xmlns="http://www.w3.org/2000/svg">
<path fill-rule="evenodd" clip-rule="evenodd" d="M10 122.318C15.5228 122.318 20 95.1322 20 61.597C20 28.0615 15.5228 0.87558 10 0.87558C4.47715 0.87558 0 28.0615 0 61.597C0 95.1322 4.47715 122.318 10 122.318ZM10.9969 102.908C14.3214 99.9753 16.875 82.5968 16.875 61.597C16.875 40.5971 14.3214 23.2188 10.9969 20.2866C10.7004 20.0252 10.5521 19.8944 10.3988 20.2557C10.2758 20.5457 10.1459 21.2283 10.0809 21.926C10 22.7951 10 23.8379 10 25.9232V97.2708C10 99.3559 10 100.399 10.0809 101.268C10.1459 101.966 10.2758 102.648 10.3988 102.939C10.5521 103.3 10.7004 103.169 10.9969 102.908Z" fill="white"/>
</svg>
