<svg width="30" height="43" viewBox="0 0 30 43" fill="none" xmlns="http://www.w3.org/2000/svg">
<path fill-rule="evenodd" clip-rule="evenodd" d="M13.0101 0.116294C9.71306 0.454694 6.65854 1.9225 4.29647 4.30356C2.14457 6.47243 0.8088 9.10802 0.2058 12.3739C-0.0701142 13.8681 -0.0682711 17.4724 0.209272 19.2576C0.377615 20.3407 1.06959 23.3065 1.42384 24.4637C1.69084 25.336 2.16484 26.4483 2.40699 26.7708C2.76274 27.2446 2.79651 27.3534 3.01264 28.7209C3.23049 30.0998 3.50164 30.9493 4.11806 32.1837L4.56454 33.0777L4.56729 35.4809C4.56891 36.8027 4.62283 38.1123 4.68716 38.3914C5.1225 40.2796 6.72124 41.8833 8.67647 42.3924C9.67997 42.6538 19.344 42.6538 20.3611 42.3924C22.0073 41.9694 23.2355 40.9683 23.9769 39.4459L24.3994 38.5782L24.4808 34.876C24.5256 32.8399 24.615 30.9136 24.6796 30.5954C24.744 30.2773 24.8 29.6177 24.8037 29.1298C24.8127 27.9831 24.8588 27.8767 25.3462 27.8767C25.6499 27.8767 25.8655 27.7628 26.2775 27.385C27.6197 26.1542 28.5057 23.8876 29.0966 20.1736C29.9199 14.9999 28.974 10.069 26.4375 6.31082C25.5527 4.9999 23.9035 3.397 22.452 2.43743C20.7972 1.34346 18.4493 0.458975 16.423 0.166158C15.1818 -0.0131649 14.384 -0.0247321 13.0101 0.116294ZM17.2131 5.2684C17.1745 5.3692 17.3121 6.0526 17.5189 6.787C17.9515 8.32236 18.0562 9.80599 17.7534 10.1092C17.5323 10.3308 17.3747 10.2294 17.0394 9.6499C16.6508 8.97833 15.8578 7.8649 15.7669 7.86328C15.7243 7.86246 15.655 8.01807 15.6132 8.20896C15.5712 8.39985 15.5109 8.55606 15.4792 8.55606C15.4473 8.55606 15.187 8.32176 14.9007 8.03543C14.6144 7.7491 14.3322 7.5148 14.2735 7.5148C14.2149 7.5148 14.167 7.7542 14.167 8.04688C14.167 8.58855 13.9253 9.25009 13.6413 9.48585C13.3585 9.72036 13.0658 9.49433 12.6996 8.75852L12.3396 8.03543L12.1122 8.55769C11.8529 9.15302 11.5847 9.42083 11.3415 9.32749C11.1848 9.26732 10.4648 7.25509 10.4648 6.87713C10.4648 6.62539 10.3701 6.65985 9.81741 7.1128C9.41726 7.44066 9.16526 7.83692 8.5329 9.13232C8.10009 10.0186 7.71296 10.7462 7.67259 10.749C7.63221 10.7519 7.50206 10.6111 7.38339 10.436C7.05424 9.95072 7.08107 8.19508 7.43499 7.0687C7.58203 6.60075 7.67713 6.19245 7.64623 6.16168C7.53133 6.04682 6.51797 7.10423 6.0321 7.84592C4.86197 9.63246 4.29981 11.3328 3.86576 14.3985C3.79367 14.9076 3.63506 15.6874 3.51321 16.1316C3.30026 16.9087 3.23104 17.4643 3.34744 17.4643C3.378 17.4643 3.66086 17.2692 3.97624 17.0305C4.2915 16.792 4.83793 16.422 5.1903 16.2084C5.77907 15.8516 5.92774 15.8153 7.02 15.7608C8.38144 15.6929 8.94823 15.8088 9.61402 16.2911C9.93356 16.5225 10.1148 16.7667 10.2148 17.101L10.3583 17.5794L11.1924 17.5508C11.6513 17.5351 12.1959 17.5654 12.4027 17.6181C12.7755 17.7133 12.7787 17.7106 12.7787 17.2943C12.7787 16.4906 13.1908 15.9896 14.1008 15.6871C15.1701 15.3317 16.5745 15.5224 18.1277 16.234C18.9494 16.6104 19.4511 17.0541 20.3159 18.1686L20.6224 18.5634L21.2415 18.2407C21.5819 18.0632 22.119 17.6903 22.4349 17.4121L23.0092 16.9061L22.6092 16.115C22.2192 15.3439 22.2072 15.2791 22.1343 13.5308C22.089 12.4463 21.9837 11.4633 21.8678 11.0434C21.6251 10.1637 21.0087 8.73122 20.5105 7.88873C20.018 7.0561 18.6492 5.65193 18.0184 5.33218C17.4361 5.03702 17.3058 5.02673 17.2131 5.2684ZM26.4589 17.5511C26.3334 17.6625 26.1417 18.0973 26.0331 18.5174C25.9243 18.9376 25.7316 19.4521 25.6045 19.6609L25.3737 20.0405L25.7553 20.4343C26.0599 20.7484 26.1347 20.9176 26.1254 21.2718C26.109 21.8981 25.6213 22.8729 25.0312 23.4588C24.5423 23.9443 24.5264 23.9836 24.4459 24.905C24.3811 25.6465 24.3997 25.9085 24.5317 26.1124C24.7481 26.4465 24.8742 26.44 25.3594 26.0698C26.2756 25.371 27.1797 23.2148 27.5214 20.9137C27.8235 18.8785 27.7634 18.1533 27.2468 17.609C26.9497 17.2959 26.7624 17.2822 26.4589 17.5511ZM15.1494 18.3409C14.8317 18.5049 14.3969 18.8229 14.1828 19.0477C13.8478 19.3996 13.8029 19.5131 13.86 19.8652C14.005 20.7587 15.0882 21.3949 16.4674 21.3967C17.6223 21.3982 18.1754 21.212 18.7657 20.6223C19.3876 20.0014 19.4156 19.6483 18.864 19.3864C18.2985 19.1182 18.0099 19.1537 17.5622 19.5468C16.6038 20.3882 15.2692 19.5024 15.838 18.4024C16.0732 17.9476 15.9354 17.9353 15.1494 18.3409ZM5.84906 18.5176C5.50556 18.7041 4.89206 19.094 4.48539 19.3841L3.74623 19.9116L4.11506 20.3366C4.55306 20.8413 4.87989 21.0323 5.6607 21.2403C6.78283 21.5392 7.93984 21.3274 8.57417 20.7072C8.99494 20.2958 9.15926 19.6956 8.9172 19.4537C8.77744 19.3138 8.68213 19.3333 8.24019 19.5924C7.54937 19.9972 7.0377 19.9841 6.43294 19.5461C6.16894 19.3548 5.95281 19.1499 5.95281 19.0906C5.95281 19.0314 6.14812 18.7979 6.3867 18.5718C6.91136 18.0744 6.70393 18.0536 5.84906 18.5176ZM22.6021 18.9072C22.246 19.2436 21.8541 19.476 21.4031 19.6182C20.9594 19.7581 20.7031 19.9086 20.6442 20.0641C20.136 21.406 19.809 21.7871 18.7368 22.2883C18.0974 22.5871 17.9332 22.6126 16.6544 22.6126C14.9253 22.6126 14.2174 22.3719 13.2925 21.4696C12.6717 20.864 12.4336 20.3422 12.4323 19.5842C12.4313 19.0246 11.9568 18.6989 11.2417 18.7668C10.4553 18.8416 10.3664 18.9856 10.1751 20.4913C10.0848 21.202 9.43264 21.9577 8.58921 22.3291C7.6764 22.7311 5.93469 22.7851 4.9212 22.4429C4.08626 22.161 3.2646 21.6403 2.98766 21.2175C2.74286 20.844 2.6415 20.8613 2.55531 21.2918C2.44491 21.844 2.79711 23.3006 3.36039 24.6212C3.64153 25.2805 4.05596 26.5821 4.28109 27.5135C4.50634 28.4449 4.77287 29.5455 4.87354 29.9591C5.09786 30.8813 5.86594 32.3748 6.36437 32.8579L6.73376 33.2158L6.8094 32.7118C6.85097 32.4345 6.82942 31.7094 6.76153 31.1005C6.55534 29.2516 6.7725 28.7618 8.06456 28.1616C8.4621 27.9769 8.80628 27.814 8.82939 27.7995C8.85266 27.7849 8.75319 27.5283 8.60833 27.2293C8.28369 26.5586 8.19416 25.7339 8.38166 25.1425C8.63794 24.3343 9.10406 23.368 9.20704 23.4316C9.26246 23.4659 9.30793 23.8788 9.30793 24.3492C9.30793 25.5343 9.4959 26.2981 9.92593 26.8602C10.54 27.6631 11.1705 27.6874 12.0205 26.941C12.215 26.7703 12.5945 26.5646 12.8637 26.4838C13.4433 26.3102 13.6574 26.0952 14.0486 25.2932C14.2829 24.8132 14.397 24.6951 14.6261 24.6951C14.8588 24.6951 14.9374 24.7806 15.051 25.1579C15.3208 26.0532 15.2319 26.5813 14.7163 27.1477L14.4848 27.4021L14.7597 27.4585C14.911 27.4896 15.4008 27.5436 15.8484 27.5785C16.898 27.6607 17.6913 27.9351 17.9965 28.3215C18.2139 28.5968 18.2347 28.7488 18.1969 29.7864C18.1644 30.6773 18.1017 31.0346 17.9251 31.3361C17.6878 31.7411 17.35 32.0238 17.2374 31.9112C17.202 31.8758 17.1184 31.4104 17.0514 30.8768C16.9845 30.3433 16.9096 29.8865 16.8848 29.8617C16.86 29.8369 15.8177 29.7889 14.5686 29.755L12.2975 29.6935L12.0535 29.3635C11.7443 28.9452 11.6217 28.9458 11.6217 29.3656C11.6217 29.6587 11.564 29.7129 11.13 29.828C10.8596 29.8998 10.2003 30.0103 9.66493 30.0736C8.52711 30.2082 8.2233 30.3727 8.02976 30.9593C7.70267 31.9502 8.22724 34.7413 8.99323 36.0866C9.88787 37.6577 10.5745 38.0617 12.4917 38.1451C15.1969 38.2625 16.1259 37.6636 17.4732 34.9339C17.7715 34.3294 18.3481 33.3339 18.7543 32.7216C19.644 31.3809 20.0418 30.444 20.1763 29.3731C20.2883 28.4812 20.3834 28.2981 21.444 26.9324C23.3052 24.5359 23.799 22.6985 23.3667 19.7782C23.2583 19.0465 23.161 18.4386 23.1505 18.4275C23.1399 18.4164 22.8931 18.6322 22.6021 18.9072ZM13.8777 30.4346C12.6507 30.7021 11.6482 30.7474 10.0465 30.6083C8.92646 30.511 8.86517 30.5176 8.62209 30.7606C8.1888 31.1939 8.34651 31.3799 9.37607 31.6502C10.8933 32.0486 12.0625 32.0978 13.4153 31.8204C15.4154 31.4103 16.2495 31.0104 16.2495 30.4618C16.2495 30.2076 16.2075 30.1911 15.5842 30.1991C15.2183 30.2038 14.4504 30.3099 13.8777 30.4346ZM13.5307 33.3208C13.2762 33.3734 12.4288 33.4196 11.6477 33.4232L10.2276 33.4299L10.3971 33.758C10.9242 34.7771 12.6198 35.3539 13.5782 34.8398C13.9839 34.6223 14.554 33.9113 14.6854 33.4588C14.7535 33.2244 14.7228 33.1998 14.3772 33.2118C14.1662 33.2191 13.7852 33.2682 13.5307 33.3208Z" fill="#DDDDDD"/>
</svg>
