<svg width="43" height="42" viewBox="0 0 43 42" fill="none" xmlns="http://www.w3.org/2000/svg">
<path fill-rule="evenodd" clip-rule="evenodd" d="M20.2018 0.356311C16.6008 0.784538 13.9304 1.83511 11.2379 3.88317C9.55461 5.16351 8.31155 6.49722 7.13122 8.28934C5.44674 10.8467 4.55648 13.4293 4.39707 16.2203L4.3377 17.2595L3.72702 17.5761C1.95766 18.4935 0.782036 20.3715 0.67605 22.4498C0.586314 24.2087 1.11068 25.5656 2.36388 26.8183C3.20276 27.6567 4.05939 28.1403 5.1841 28.4102C5.81597 28.5618 5.83232 28.5731 5.88599 28.8981C5.91627 29.0811 5.94154 29.403 5.94209 29.6134C5.94379 30.2503 6.21318 31.5964 6.51616 32.482C7.48027 35.3005 9.40136 37.6353 12.0517 39.2099C13.4174 40.0212 15.7533 40.7805 17.926 41.1189C19.2444 41.3249 22.677 41.4081 24.1033 41.2693C28.4459 40.8468 31.7208 39.4256 34.0684 36.9456C36.0377 34.8652 37.0943 32.4278 37.2973 29.4969L37.3626 28.5553L37.8391 28.4594C39.6082 28.1034 41.1331 26.9624 41.8979 25.4223C43.3591 22.479 42.2499 19.0151 39.354 17.4788L38.9491 17.2641L38.8419 15.9555C38.6618 13.7561 38.1169 11.9263 37.0011 9.77364C34.2383 4.44369 29.1928 1.00794 23.2208 0.389938C22.3803 0.302899 20.7989 0.285345 20.2018 0.356311ZM23.7186 6.06528C23.5581 6.1105 23.0393 6.40202 22.5657 6.71299C21.5893 7.35403 21.6553 7.35424 20.7083 6.70874C19.925 6.17479 19.6455 6.05458 19.1878 6.05458C18.8516 6.05458 18.7037 6.11152 18.4415 6.34172C17.9614 6.76326 17.9126 7.07257 17.9444 9.4896C17.9705 11.466 17.9859 11.6332 18.1643 11.8769C18.6469 12.5364 19.5138 12.6133 20.1114 12.0497L20.434 11.7454V10.7656C20.434 10.0784 20.4679 9.77441 20.5471 9.74804C20.6093 9.72731 20.8605 9.79504 21.1055 9.89849C21.5463 10.0847 21.5562 10.0849 22.0686 9.91067C22.8343 9.65041 22.8854 9.70986 22.9421 10.9261C22.9843 11.8308 23.0087 11.9396 23.2064 12.0995C23.9195 12.6769 24.9445 12.4267 25.2582 11.5988C25.3179 11.4409 25.3573 10.4833 25.3573 9.18211C25.3573 7.25763 25.3388 6.9924 25.1842 6.70335C24.9058 6.18269 24.2755 5.90829 23.7186 6.06528ZM20.527 16.3313C17.7451 16.5092 16.785 16.6391 14.7213 17.1167C13.5353 17.3911 9.64034 18.6413 9.09863 18.9213L8.82274 19.064V24.1144C8.82274 27.0065 8.86482 29.5757 8.92121 30.1266C9.21927 33.0372 11.0637 35.5945 13.8853 37.0094C16.2077 38.1738 19.592 38.7155 23.0596 38.4774C27.3718 38.1814 29.94 37.1854 32.0107 35.0059C32.9039 34.0658 33.2829 33.4969 33.7651 32.3723C34.3393 31.033 34.3543 30.8434 34.3774 24.645C34.396 19.6501 34.3825 19.0285 34.2536 18.9564C34.0381 18.8358 31.5639 17.958 30.7039 17.6971C29.5735 17.354 27.4638 16.8569 26.472 16.7C24.7424 16.4263 21.8477 16.2467 20.527 16.3313ZM25.9909 18.5437C25.4044 18.6948 24.9565 19.0563 24.6933 19.5909C24.4884 20.0069 24.4729 20.1579 24.4437 22.0023C24.4087 24.2153 24.4864 24.8001 24.8897 25.3567C25.6267 26.3742 27.3506 26.4099 28.103 25.4233C28.5555 24.8301 28.6 24.5576 28.6039 22.3569C28.6058 21.1892 28.5651 20.1612 28.5088 19.9584C28.4546 19.7632 28.2592 19.4362 28.0745 19.2318C27.484 18.5782 26.7706 18.3426 25.9909 18.5437ZM15.9781 18.6053C15.5277 18.7851 15.1159 19.1842 14.898 19.6522C14.6852 20.1092 14.6766 20.2096 14.6758 22.2533C14.6747 24.5692 14.7238 24.8888 15.1614 25.4198C15.6046 25.9574 16.0696 26.1439 16.8667 26.1037C17.436 26.075 17.6052 26.0256 17.9383 25.7916C18.1768 25.6239 18.4281 25.3305 18.5711 25.0527C18.8003 24.6077 18.8096 24.5232 18.8406 22.5919C18.8786 20.2267 18.8078 19.7706 18.3184 19.2289C17.8475 18.7077 17.396 18.5007 16.7454 18.5078C16.4495 18.511 16.1043 18.5549 15.9781 18.6053ZM5.29994 19.8697C3.81335 20.6304 3.14424 22.1556 3.61594 23.7086C3.79 24.2819 3.8999 24.4621 4.34781 24.9096C4.82388 25.3852 5.67367 25.8621 5.80714 25.7285C5.83232 25.7035 5.84179 24.3169 5.82833 22.6475L5.80378 19.6119L5.29994 19.8697ZM37.3401 22.6838V25.751L37.5956 25.6918C38.3046 25.5275 39.1479 24.7793 39.5094 23.9938C39.8217 23.3152 39.7911 22.1655 39.4404 21.405C39.1356 20.744 38.606 20.2079 37.9089 19.8547C37.6506 19.7237 37.417 19.6166 37.3897 19.6166C37.3624 19.6166 37.3401 20.9969 37.3401 22.6838ZM20.0688 26.1638C19.3413 26.3397 17.955 27.07 17.2587 27.6444C16.7124 28.095 15.9172 28.9509 15.1829 29.8787C14.9398 30.1858 14.8755 30.2207 14.7127 30.1335C14.6089 30.078 14.3421 29.6946 14.1198 29.2815C13.6697 28.4452 13.3307 28.1639 12.6933 28.0978C12.2273 28.0495 11.5815 28.3497 11.2898 28.7503C10.9986 29.1502 11.024 30.1775 11.3419 30.8564C11.989 32.2384 13.5166 33.436 15.3565 34.0036C15.7059 34.1113 16.4719 34.2495 17.0587 34.3107C18.3555 34.4459 19.7751 34.3176 20.8941 33.9641L21.6272 33.7325L22.3079 33.9597C24.7165 34.7636 28.0594 34.3509 30.0387 33.0055C31.1079 32.2787 32.1053 30.8414 32.204 29.8852C32.3228 28.7344 31.3697 27.8693 30.3003 28.1572C29.7647 28.3014 29.5066 28.5461 29.1893 29.2103C28.8681 29.8827 28.6717 30.1133 28.42 30.1133C28.3106 30.1133 27.9559 29.7602 27.4753 29.1729C26.201 27.6159 24.7379 26.588 23.2571 26.2093C22.4158 25.9941 20.8626 25.9719 20.0688 26.1638Z" fill="#DDDDDD"/>
</svg>
