<svg width="29" height="39" viewBox="0 0 29 39" fill="none" xmlns="http://www.w3.org/2000/svg">
<path fill-rule="evenodd" clip-rule="evenodd" d="M12.9459 0.1214C12.7444 0.196605 12.4728 0.336609 12.3421 0.432281C12.0091 0.676239 11.5231 1.42 11.397 1.87887C11.3183 2.16499 11.3077 5.27903 11.3563 13.8996C11.3923 20.2986 11.3863 25.5341 11.343 25.5341C11.2996 25.5341 10.8471 25.4228 10.3374 25.2865C9.51474 25.0667 9.23329 25.038 7.83146 25.031C6.46096 25.0242 6.15017 25.0512 5.47856 25.2347C1.95287 26.1988 -0.342068 29.2091 0.0545913 32.3494C0.185636 33.3872 0.413796 33.9807 1.06375 34.974C2.18485 36.6874 4.00169 37.8187 6.26712 38.2136C10.54 38.9589 14.6965 36.6847 15.6725 33.0678C15.8527 32.4002 15.87 32.0475 15.9046 28.3596C15.9251 26.167 15.9458 20.7722 15.9507 16.3715C15.9591 8.62487 15.9651 8.36291 16.1379 8.15067C16.3071 7.9426 16.3678 7.9322 17.3222 7.94731C17.8755 7.95606 18.6444 8.02575 19.0309 8.1021C21.2187 8.53438 23.5773 10.0595 24.5381 11.663C25.5882 13.4158 25.3589 15.6821 23.9365 17.6074C23.4874 18.2155 23.4644 18.5625 23.8479 18.946C24.1994 19.2975 24.5522 19.298 25.0358 18.9477C25.8692 18.3439 27.2011 16.5465 27.8988 15.0839C28.6281 13.5553 28.7325 13.0638 28.7282 11.1825C28.7247 9.64767 28.7161 9.57866 28.4223 8.72093C27.6261 6.39745 25.8888 4.45556 23.112 2.7854C22.1264 2.19264 20.0598 1.31401 18.6355 0.88236C16.2477 0.158557 13.7428 -0.176444 12.9459 0.1214Z" fill="#DDDDDD"/>
</svg>
